<?xml version="1.0" encoding="utf-8"?>
<!-- Generator: Adobe Illustrator 21.1.0, SVG Export Plug-In . SVG Version: 6.00 Build 0)  -->
<svg version="1.1" id="Layer_1" xmlns="http://www.w3.org/2000/svg" xmlns:xlink="http://www.w3.org/1999/xlink" x="0px" y="0px"
	 viewBox="0 0 417.6 288" style="enable-background:new 0 0 417.6 288;" xml:space="preserve">
<style type="text/css">
	.st0{fill:#01C5C4;}
	.st1{enable-background:new    ;}
	.st2{fill:#FFFFFF;}
	.st3{fill:none;stroke:#000000;stroke-miterlimit:10;}
</style>
<title>buspass</title>
<g id="Layer_5">
	<rect class="st0" width="417.6" height="288"/>
</g>
<g id="Layer_4">
	<g id="Layer_1_1_">
		<g class="st1">
			<path class="st2" d="M186.3,49.7V33.4h-4.5v5.6h-2.7v-8.3h17.7v8.3h-2.7v-5.6h-4.5v16.3h2.8v2.7h-8.9v-2.7H186.3z"/>
		</g>
		<g class="st1">
			<path class="st2" d="M201.1,49.8V33.3h-2.7v-2.6h5.7V39c1.8-1.4,3.5-2.2,5.1-2.2c1,0,1.8,0.2,2.5,0.6c0.6,0.4,1.1,1,1.3,1.7
				c0.2,0.7,0.4,1.7,0.4,3v7.7h2.6v2.6h-5.6v-9.3c0-1.1,0-1.9-0.1-2.3c-0.1-0.4-0.3-0.7-0.6-1c-0.3-0.3-0.7-0.4-1.2-0.4
				c-1.1,0-2.6,0.7-4.4,2v8.3h2.6v2.6h-8.4v-2.6H201.1z"/>
			<path class="st2" d="M233.3,45.6h-12.8c0.2,1.4,0.7,2.5,1.7,3.4c0.9,0.9,2.1,1.3,3.5,1.3c2.1,0,3.7-0.8,4.9-2.5l2.6,1.2
				c-0.9,1.3-2,2.3-3.3,3c-1.4,0.6-2.8,1-4.3,1c-2.3,0-4.3-0.7-5.9-2.2s-2.5-3.4-2.5-5.9c0-2.3,0.8-4.2,2.4-5.8
				c1.6-1.5,3.4-2.3,5.5-2.3c2,0,3.9,0.7,5.5,2.2C232.3,40.5,233.2,42.7,233.3,45.6z M230.2,43.5c-0.2-1.1-0.8-2-1.7-2.9
				c-0.9-0.9-2-1.3-3.3-1.3c-1.2,0-2.2,0.4-3.1,1.2s-1.4,1.8-1.6,3H230.2z"/>
		</g>
		<g class="st1">
			<path class="st2" d="M161,137.1v-16.3h-2.7V118h7.8c2.3,0,4,0.2,5.1,0.5c1.1,0.3,2.1,1.1,2.9,2.2c0.8,1.1,1.2,2.5,1.2,4.1
				c0,1.2-0.3,2.4-0.8,3.3c-0.5,1-1.1,1.7-1.9,2.2c-0.7,0.5-1.6,0.8-2.5,0.9c-0.9,0.2-2.3,0.2-4.2,0.2h-1.5v5.6h2.8v2.7h-8.9v-2.7
				H161z M164.3,128.8h1.9c2.1,0,3.6-0.3,4.5-0.9c0.8-0.6,1.2-1.7,1.2-3.2c0-1-0.2-1.8-0.7-2.4c-0.4-0.6-1-1.1-1.6-1.2
				s-1.7-0.3-3.2-0.3h-2V128.8z"/>
		</g>
		<g class="st1">
			<path class="st2" d="M179.7,137.2v-9.9h-3.1v-2.6h5.4v3.4c0.3-0.9,0.8-1.6,1.4-2.2c0.6-0.6,1.2-1,1.9-1.2s1.6-0.3,2.7-0.3h0.8v3
				h-0.6c-1.5,0-2.6,0.2-3.4,0.5c-0.7,0.3-1.3,0.9-1.7,1.7c-0.4,0.8-0.5,2.2-0.5,4.3v3.3h3.3v2.6h-9.3v-2.6H179.7z"/>
		</g>
		<g class="st1">
			<path class="st2" d="M189.3,132.2c0-2.3,0.8-4.3,2.3-5.8c1.5-1.5,3.4-2.2,5.7-2.2c2.2,0,4.1,0.7,5.6,2.2s2.4,3.4,2.4,5.8
				s-0.8,4.3-2.3,5.8s-3.4,2.2-5.6,2.2c-2.3,0-4.2-0.8-5.7-2.3C190.1,136.5,189.3,134.6,189.3,132.2z M192.5,132.2
				c0,1.5,0.5,2.7,1.4,3.7c0.9,1,2.1,1.4,3.4,1.4c1.4,0,2.5-0.5,3.4-1.5c0.9-1,1.4-2.2,1.4-3.7c0-1.5-0.5-2.7-1.4-3.7
				c-0.9-1-2.1-1.4-3.4-1.4c-1.4,0-2.6,0.5-3.5,1.5C192.9,129.5,192.5,130.8,192.5,132.2z"/>
			<path class="st2" d="M205.9,146.3v-2.7c0.5,0.1,1,0.1,1.4,0.1c0.8,0,1.4-0.1,1.8-0.4c0.4-0.2,0.7-0.6,0.8-1.1
				c0.1-0.5,0.2-1.9,0.2-4.3v-10.8h-2.4v-2.6h5.4v12.9c0,2.6-0.1,4.4-0.3,5.4s-0.7,1.9-1.5,2.5c-0.8,0.7-2,1-3.7,1
				C207,146.5,206.4,146.4,205.9,146.3z M209.7,119.5c0-0.5,0.2-0.9,0.5-1.3c0.4-0.4,0.8-0.5,1.3-0.5c0.5,0,0.9,0.2,1.3,0.5
				c0.3,0.3,0.5,0.8,0.5,1.3s-0.2,0.9-0.5,1.3c-0.4,0.4-0.8,0.5-1.3,0.5c-0.5,0-0.9-0.2-1.3-0.5C209.8,120.4,209.7,120,209.7,119.5z
				"/>
			<path class="st2" d="M233.1,133h-12.8c0.2,1.4,0.7,2.5,1.7,3.4c0.9,0.9,2.1,1.3,3.5,1.3c2.1,0,3.7-0.8,4.9-2.5l2.6,1.2
				c-0.9,1.3-2,2.3-3.3,3s-2.8,1-4.3,1c-2.3,0-4.3-0.7-5.9-2.2s-2.5-3.4-2.5-5.9c0-2.3,0.8-4.2,2.4-5.8c1.6-1.5,3.4-2.3,5.5-2.3
				c2,0,3.9,0.7,5.5,2.2C232.2,127.9,233,130.1,233.1,133z M230,130.8c-0.2-1.1-0.8-2-1.7-2.9c-0.9-0.9-2-1.3-3.3-1.3
				c-1.2,0-2.2,0.4-3.1,1.2c-0.8,0.8-1.4,1.8-1.6,3H230z"/>
			<path class="st2" d="M249.8,124.6v5.7h-2.7c-0.1-1.1-0.6-1.9-1.3-2.5c-0.8-0.6-1.6-0.9-2.6-0.9c-1.3,0-2.4,0.5-3.3,1.4
				c-0.8,0.9-1.3,2.2-1.3,3.7c0,1.4,0.4,2.7,1.2,3.8c0.8,1.1,1.9,1.6,3.4,1.6c2.1,0,3.6-1,4.5-3l2.5,1.2c-1.4,3-3.7,4.5-7.1,4.5
				c-2.4,0-4.3-0.8-5.7-2.5c-1.4-1.6-2.1-3.5-2.1-5.7c0-2.3,0.8-4.2,2.3-5.7c1.5-1.5,3.2-2.2,5.2-2.2c1.7,0,3.1,0.5,4.3,1.5v-1.1
				H249.8z"/>
			<path class="st2" d="M252,127.3v-2.6h2v-2.3l3-2.7v5.1h2.8v2.6h-2.8v7.4c0,1.2,0.1,1.9,0.2,2.2c0.1,0.3,0.5,0.4,1,0.4
				c0.6,0,1.1-0.1,1.6-0.3v2.7c-0.8,0.3-1.5,0.4-2.3,0.4c-0.9,0-1.6-0.2-2.2-0.6c-0.6-0.4-0.9-0.9-1.1-1.5c-0.1-0.6-0.2-1.7-0.2-3.1
				v-7.5H252z"/>
		</g>
		<g class="st1">
			<path class="st2" d="M234.7,66.1c2.3,0,4.3,0.2,6.1,0.5c1.8,0.3,3.3,0.9,4.5,1.8c1.2,0.9,2.2,2,2.8,3.5c0.6,1.5,1,3.3,1,5.6
				c0,2.3-0.3,4.3-1,5.9c-0.6,1.6-1.6,2.9-2.8,3.9c-1.2,1-2.8,1.7-4.5,2.1c-1.8,0.4-3.8,0.7-6.1,0.7h-7v8.3c0,1.6,1.9,2.4,5.8,2.4
				v4.3h-21.1v-4.3c3.1,0,4.7-0.8,4.7-2.4V72.8c0-1.6-1.6-2.4-4.7-2.4v-4.3H234.7z M227.7,71.7v12.8h4.5c2.5,0,4.3-0.5,5.3-1.6
				c1-1.1,1.5-2.9,1.5-5.4c0-1.8-0.5-3.2-1.5-4.2c-1-1-2.8-1.5-5.3-1.5H227.7z"/>
		</g>
		<g class="st1">
			<path class="st2" d="M279.3,99.1c0,1.5,0.5,2.2,1.5,2.2c0.5,0,0.9-0.2,1.1-0.7c0.2-0.4,0.4-0.9,0.4-1.5v-2.7h3v1.7
				c0,1.5-0.2,2.7-0.7,3.6c-0.4,0.9-1,1.7-1.7,2.2c-0.7,0.6-1.5,0.9-2.4,1.1c-0.9,0.2-1.7,0.3-2.6,0.3c-2.2,0-3.8-0.5-4.8-1.5
				c-1-1-1.7-2.3-2.1-3.8c-0.3,0.8-0.8,1.5-1.4,2.2c-0.6,0.7-1.3,1.3-2.2,1.9c-0.9,0.5-1.9,1-3,1.3c-1.2,0.3-2.4,0.5-3.9,0.5
				c-3.2,0-5.6-0.7-7.1-2c-1.5-1.3-2.2-3.1-2.2-5.4c0-1.4,0.2-2.5,0.7-3.5c0.5-0.9,1.2-1.6,2-2.2c0.9-0.6,1.9-1,3.1-1.4
				c1.2-0.3,2.5-0.6,3.9-0.9c1.4-0.3,2.9-0.6,4.4-0.9c1.6-0.3,3.2-0.7,4.8-1.3v-1.6c0-0.7-0.1-1.4-0.3-2.1c-0.2-0.7-0.5-1.3-1-1.9
				c-0.5-0.5-1-1-1.8-1.3c-0.7-0.3-1.6-0.5-2.5-0.5c-1.5,0-2.7,0.1-3.7,0.4c-1,0.3-1.8,0.7-2.6,1.2c0.8,0.1,1.6,0.3,2.2,0.7
				c0.6,0.4,0.9,1.1,0.9,2c0,1.1-0.4,1.9-1.1,2.6c-0.7,0.6-1.8,1-3.2,1c-2.8,0-4.2-1.4-4.2-4.1c0-1,0.3-1.9,0.9-2.8
				c0.6-0.9,1.4-1.7,2.5-2.4c1.1-0.7,2.4-1.2,4.1-1.6c1.6-0.4,3.4-0.6,5.5-0.6c1.6,0,3.2,0.1,4.8,0.4c1.6,0.3,3,0.8,4.3,1.5
				c1.3,0.7,2.3,1.7,3.1,2.9c0.8,1.2,1.2,2.8,1.2,4.7V99.1z M270.3,90.6c-1.6,0.7-3.1,1.3-4.4,1.7c-1.3,0.5-2.4,0.9-3.2,1.4
				c-0.9,0.5-1.6,1-2,1.5s-0.7,1.4-0.7,2.3c0,0.9,0.3,1.7,0.9,2.2c0.6,0.6,1.6,0.9,3,0.9c1.5,0,2.7-0.4,3.8-1.2
				c1.1-0.8,1.9-1.7,2.5-2.9V90.6z"/>
			<path class="st2" d="M313.2,87.5l-4.2,0.4c-0.5-2.1-1.5-3.6-3-4.5c-1.6-0.9-3.4-1.3-5.5-1.3c-1.3,0-2.3,0.2-3,0.7
				c-0.7,0.4-1.1,1-1.1,1.8c0,0.9,0.5,1.6,1.4,2c0.9,0.5,2,0.8,3.4,1.1c1.4,0.3,2.8,0.6,4.4,0.9c1.6,0.3,3.1,0.8,4.4,1.4
				c1.4,0.6,2.5,1.5,3.4,2.6c0.9,1.1,1.4,2.5,1.4,4.3c0,1.4-0.3,2.7-0.8,3.7c-0.6,1-1.3,1.9-2.2,2.6c-0.9,0.7-2,1.2-3.2,1.5
				c-1.2,0.3-2.5,0.5-3.8,0.5c-2.4,0-4.3-0.2-5.6-0.5c-1.3-0.3-2.4-0.7-3.2-1.2c-0.2-0.1-0.5-0.2-0.7-0.3c-0.2-0.1-0.5-0.2-0.7-0.2
				c-0.7,0-1.1,0.6-1.3,1.8h-4.2v-9.5c0.7-0.1,1.4-0.1,2.1-0.2c0.7,0,1.4-0.1,2.1-0.1c0.2,0.9,0.6,1.8,1.3,2.5
				c0.6,0.7,1.4,1.4,2.4,1.9c0.9,0.5,2,0.9,3.1,1.2c1.1,0.3,2.3,0.4,3.4,0.4c1.3,0,2.2-0.3,2.9-0.8c0.7-0.5,1-1.2,1-2
				c0-0.8-0.3-1.5-0.9-1.9c-0.6-0.4-1.5-0.8-2.5-1s-2.2-0.5-3.6-0.7c-1.3-0.2-2.7-0.5-4.1-0.9c-2.6-0.7-4.5-1.7-5.6-3
				c-1.1-1.3-1.6-3-1.6-5.1c0-2.4,0.8-4.3,2.5-5.8c1.7-1.5,4-2.2,7.1-2.2c1.3,0,2.4,0.1,3.4,0.3c1,0.2,1.9,0.5,2.6,0.8
				c0.7,0.3,1.4,0.6,1.9,0.8c0.5,0.2,1,0.3,1.3,0.3c0.4,0,0.7-0.1,1-0.4c0.2-0.3,0.4-0.7,0.5-1.3h3.9V87.5z"/>
			<path class="st2" d="M343.2,87.5l-4.2,0.4c-0.5-2.1-1.5-3.6-3-4.5c-1.6-0.9-3.4-1.3-5.5-1.3c-1.3,0-2.3,0.2-3,0.7
				c-0.7,0.4-1.1,1-1.1,1.8c0,0.9,0.5,1.6,1.4,2c0.9,0.5,2,0.8,3.4,1.1c1.4,0.3,2.8,0.6,4.4,0.9c1.6,0.3,3.1,0.8,4.4,1.4
				c1.4,0.6,2.5,1.5,3.4,2.6c0.9,1.1,1.4,2.5,1.4,4.3c0,1.4-0.3,2.7-0.8,3.7c-0.6,1-1.3,1.9-2.2,2.6c-0.9,0.7-2,1.2-3.2,1.5
				c-1.2,0.3-2.5,0.5-3.8,0.5c-2.4,0-4.3-0.2-5.6-0.5c-1.3-0.3-2.4-0.7-3.2-1.2c-0.2-0.1-0.5-0.2-0.7-0.3c-0.2-0.1-0.5-0.2-0.7-0.2
				c-0.7,0-1.1,0.6-1.3,1.8h-4.2v-9.5c0.7-0.1,1.4-0.1,2.1-0.2c0.7,0,1.4-0.1,2.1-0.1c0.2,0.9,0.6,1.8,1.3,2.5
				c0.6,0.7,1.4,1.4,2.4,1.9c0.9,0.5,2,0.9,3.1,1.2c1.1,0.3,2.3,0.4,3.4,0.4c1.3,0,2.2-0.3,2.9-0.8c0.7-0.5,1-1.2,1-2
				c0-0.8-0.3-1.5-0.9-1.9c-0.6-0.4-1.5-0.8-2.5-1s-2.2-0.5-3.6-0.7c-1.3-0.2-2.7-0.5-4.1-0.9c-2.6-0.7-4.5-1.7-5.6-3
				c-1.1-1.3-1.6-3-1.6-5.1c0-2.4,0.8-4.3,2.5-5.8c1.7-1.5,4-2.2,7.1-2.2c1.3,0,2.4,0.1,3.4,0.3c1,0.2,1.9,0.5,2.6,0.8
				c0.7,0.3,1.4,0.6,1.9,0.8c0.5,0.2,1,0.3,1.3,0.3c0.4,0,0.7-0.1,1-0.4c0.2-0.3,0.4-0.7,0.5-1.3h3.9V87.5z"/>
		</g>
		<g class="st1">
			<path class="st2" d="M107.7,65.2c2,0,3.9,0.1,5.6,0.3c1.7,0.2,3.1,0.7,4.3,1.4c1.2,0.7,2.1,1.7,2.8,2.9c0.7,1.3,1,3,1,5.1
				c0,1.2-0.2,2.3-0.6,3.2c-0.4,0.9-0.9,1.8-1.6,2.4c-0.7,0.7-1.5,1.2-2.4,1.6c-0.9,0.4-1.9,0.7-2.9,0.9c3.2,0.3,5.6,1.2,7.4,2.7
				c1.8,1.5,2.6,3.7,2.6,6.6c0,2.2-0.3,4-0.9,5.5c-0.6,1.5-1.5,2.7-2.7,3.6c-1.2,0.9-2.8,1.5-4.7,1.9c-1.9,0.4-4.1,0.6-6.7,0.6H84.7
				v-4.3c3.1,0,4.7-0.8,4.7-2.4V72.3c0-1.6-1.6-2.4-4.7-2.4v-4.7H107.7z M99.9,71.2v10.3h5.4c1.9,0,3.2-0.5,4-1.4
				c0.7-0.9,1.1-2.4,1.1-4.4c0-3-1.7-4.5-5.1-4.5H99.9z M99.9,85.9v12.5h6.7c1.2,0,2.2-0.2,3-0.5c0.8-0.3,1.4-0.8,1.9-1.3
				c0.5-0.6,0.8-1.3,1-2c0.2-0.8,0.3-1.6,0.3-2.6c0-2-0.5-3.5-1.4-4.6c-0.9-1-2.5-1.5-4.7-1.5H99.9z"/>
			<path class="st2" d="M161.8,97.5c0,1.6,1.4,2.4,4.2,2.4v4.2h-13.6v-5.3c-1,1.8-2.4,3.2-4.1,4.3c-1.7,1.1-3.9,1.6-6.5,1.6
				c-2.8,0-4.9-0.6-6.2-1.9c-1.3-1.2-2-3.2-2-5.9V84c0-1.6-1.5-2.4-4.5-2.4v-4.2h13.7v15c0,2.2,0.3,3.8,0.8,4.8
				c0.5,1,1.4,1.5,2.6,1.5c1.5,0,2.7-0.6,3.7-1.7c1-1.2,1.8-2.7,2.4-4.7V84c0-0.8-0.3-1.4-0.9-1.8c-0.6-0.4-1.6-0.6-3-0.6v-4.2h13.3
				V97.5z"/>
			<path class="st2" d="M194.4,86.6l-4.2,0.4c-0.5-2.1-1.5-3.6-3-4.5c-1.6-0.9-3.4-1.3-5.5-1.3c-1.3,0-2.3,0.2-3,0.7
				c-0.7,0.4-1.1,1-1.1,1.8c0,0.9,0.5,1.6,1.4,2c0.9,0.5,2,0.8,3.4,1.1c1.4,0.3,2.8,0.6,4.4,0.9c1.6,0.3,3.1,0.8,4.4,1.4
				c1.4,0.6,2.5,1.5,3.4,2.6c0.9,1.1,1.4,2.5,1.4,4.3c0,1.4-0.3,2.7-0.8,3.7c-0.6,1-1.3,1.9-2.2,2.6c-0.9,0.7-2,1.2-3.2,1.5
				c-1.2,0.3-2.5,0.5-3.8,0.5c-2.4,0-4.3-0.2-5.6-0.5c-1.3-0.3-2.4-0.7-3.2-1.2c-0.2-0.1-0.5-0.2-0.7-0.3c-0.2-0.1-0.5-0.2-0.7-0.2
				c-0.7,0-1.1,0.6-1.3,1.8h-4.2v-9.5c0.7-0.1,1.4-0.1,2.1-0.2c0.7,0,1.4-0.1,2.1-0.1c0.2,0.9,0.6,1.8,1.3,2.5
				c0.6,0.7,1.4,1.4,2.4,1.9c0.9,0.5,2,0.9,3.1,1.2c1.1,0.3,2.3,0.4,3.4,0.4c1.3,0,2.2-0.3,2.9-0.8c0.7-0.5,1-1.2,1-2
				c0-0.8-0.3-1.5-0.9-1.9s-1.5-0.8-2.5-1s-2.2-0.5-3.6-0.7c-1.3-0.2-2.7-0.5-4.1-0.9c-2.6-0.7-4.5-1.7-5.6-3
				c-1.1-1.3-1.6-3-1.6-5.1c0-2.4,0.8-4.3,2.5-5.8c1.7-1.5,4-2.2,7.1-2.2c1.3,0,2.4,0.1,3.4,0.3c1,0.2,1.9,0.5,2.6,0.8
				c0.7,0.3,1.4,0.6,1.9,0.8c0.5,0.2,1,0.3,1.3,0.3c0.4,0,0.7-0.1,1-0.4c0.2-0.3,0.4-0.7,0.5-1.3h3.9V86.6z"/>
		</g>
	</g>
	<g id="windows">
		<path class="st3" d="M242.5,243.2"/>
		<path id="bus" class="st2" d="M245.4,251.3c-5-28.6,37.6-30.7,31.4,0.1l31.7,0.1c1.3-43-1.7-71.5-6.2-81.3c0,0-0.2-4.7-8.9-4.7
			l-165,0.1c0,0-9,0-13.3,11.3c-4.3,11.3-9,40.7-6.5,69.3c0.3,0.7,2.5,9.3,15.2,2.3c-0.9-28.3,38.7-23.4,31.8,2.5"/>
		<circle class="st2" cx="139.8" cy="245.8" r="13.3"/>
		<circle class="st2" cx="261.5" cy="245.8" r="13.3"/>
		<rect id="window" x="247" y="172" class="st0" width="38.6" height="31.7"/>
		<rect id="window-2" x="202" y="172" class="st0" width="38.6" height="31.7"/>
		<rect id="window-3" x="159.8" y="172" class="st0" width="35.5" height="31.7"/>
		<path class="st0" d="M152.3,173.5c0,0-22.8-0.7-24.2,0s-5.4,2-7.5,8.4c-2.1,6.4-3.6,21.8-3.6,21.8v9.2H143l9.3-7.4V173.5z"/>
	</g>
</g>
</svg>
