<svg xmlns="http://www.w3.org/2000/svg" viewBox="0 0 88.9 60.62"><defs><style>.cls-1{fill:#01c5c4;}.cls-2{isolation:isolate;}.cls-3{fill:#fff;}.cls-4{fill:none;stroke:#000;stroke-miterlimit:10;}</style></defs><title>Asset 2</title><g id="Layer_2" data-name="Layer 2"><g id="Layer_1-2" data-name="Layer 1"><g id="Layer_5" data-name="Layer 5"><rect class="cls-1" width="88.9" height="60.62"/></g><g id="Layer_4" data-name="Layer 4"><g id="Layer_1-3" data-name="Layer 1"><g class="cls-2"><path class="cls-3" d="M39.66,10.46V7h-1V8.21h-.57V6.46H41.9V8.21h-.57V7h-1v3.43H41V11H39.06v-.57Z"/></g><g class="cls-2"><path class="cls-3" d="M42.81,10.48V7h-.57V6.46h1.21V8.21a1.86,1.86,0,0,1,1.09-.46,1,1,0,0,1,.53.13.66.66,0,0,1,.28.36,2.26,2.26,0,0,1,.09.63v1.62H46V11H44.79v-2a2.68,2.68,0,0,0,0-.48.44.44,0,0,0-.13-.21.34.34,0,0,0-.26-.08,1.84,1.84,0,0,0-.94.42v1.75H44V11H42.21v-.55h.6Z"/><path class="cls-3" d="M49.67,9.6H46.94a1.11,1.11,0,0,0,.36.72,1,1,0,0,0,.75.27,1.2,1.2,0,0,0,1-.53l.55.25a2,2,0,0,1-.7.63,2.32,2.32,0,0,1-.92.21,1.78,1.78,0,0,1-1.26-.46,1.61,1.61,0,0,1-.53-1.24,1.64,1.64,0,0,1,.51-1.22,1.68,1.68,0,0,1,2.34,0A1.83,1.83,0,0,1,49.67,9.6ZM49,9.16a1.15,1.15,0,0,0-.36-.61,1,1,0,0,0-1.36,0,1,1,0,0,0-.34.63Z"/></g><g class="cls-2"><path class="cls-3" d="M34.27,28.86V25.43H33.7v-.59h1.66a4.42,4.42,0,0,1,1.09.11,1.18,1.18,0,0,1,.62.46,1.43,1.43,0,0,1,.26.86,1.46,1.46,0,0,1-.17.69,1.09,1.09,0,0,1-.4.46,1.15,1.15,0,0,1-.53.19,5,5,0,0,1-.89,0H35v1.18h.6v.57H33.7v-.57h.57Zm.7-1.75h.4a1.81,1.81,0,0,0,1-.19.8.8,0,0,0,.26-.67.75.75,0,0,0-.15-.51.56.56,0,0,0-.34-.25,3.87,3.87,0,0,0-.68-.06H35v1.68Z"/></g><g class="cls-2"><path class="cls-3" d="M38.26,28.88V26.8H37.6v-.55h1.15V27a1.17,1.17,0,0,1,.3-.46.93.93,0,0,1,.4-.25,2.17,2.17,0,0,1,.57-.06h.17v.63h-.13a2.1,2.1,0,0,0-.72.11.74.74,0,0,0-.36.36,2.29,2.29,0,0,0-.11.91v.69h.7v.55h-2v-.55Z"/></g><g class="cls-2"><path class="cls-3" d="M40.3,27.83a1.67,1.67,0,0,1,.49-1.22,1.71,1.71,0,1,1,0,2.42A1.5,1.5,0,0,1,40.3,27.83Zm.68,0a1.11,1.11,0,0,0,.3.78.94.94,0,0,0,.72.29.93.93,0,0,0,.72-.32,1.17,1.17,0,0,0,0-1.56.94.94,0,0,0-.72-.29,1,1,0,0,0-.75.32A1.13,1.13,0,0,0,41,27.83Z"/><path class="cls-3" d="M43.83,30.79v-.57a1.52,1.52,0,0,0,.3,0,.65.65,0,0,0,.38-.08.33.33,0,0,0,.17-.23,6.1,6.1,0,0,0,0-.91V26.75h-.51v-.55h1.15v2.72a6.71,6.71,0,0,1-.06,1.14.85.85,0,0,1-.32.53,1.17,1.17,0,0,1-.79.21A.7.7,0,0,1,43.83,30.79Zm.81-5.64a.44.44,0,0,1,.11-.27.35.35,0,0,1,.28-.11.45.45,0,0,1,.28.11.4.4,0,0,1,.11.27.44.44,0,0,1-.11.27.35.35,0,0,1-.28.11.45.45,0,0,1-.28-.11A.35.35,0,0,1,44.64,25.15Z"/><path class="cls-3" d="M49.62,28H46.9a1.11,1.11,0,0,0,.36.72A1,1,0,0,0,48,29a1.2,1.2,0,0,0,1-.53l.55.25a2,2,0,0,1-.7.63,2,2,0,0,1-.92.21,1.78,1.78,0,0,1-1.26-.46,1.61,1.61,0,0,1-.53-1.24,1.64,1.64,0,0,1,.51-1.22,1.68,1.68,0,0,1,2.34,0A1.76,1.76,0,0,1,49.62,28ZM49,27.53a1.15,1.15,0,0,0-.36-.61,1,1,0,0,0-1.36,0,1.15,1.15,0,0,0-.34.63H49Z"/><path class="cls-3" d="M53.18,26.23v1.2H52.6a.76.76,0,0,0-.28-.53.88.88,0,0,0-.55-.19,1,1,0,0,0-.7.29,1.16,1.16,0,0,0-.28.78,1.33,1.33,0,0,0,.26.8.83.83,0,0,0,.72.34,1,1,0,0,0,1-.63l.53.25a1.54,1.54,0,0,1-1.51.95A1.49,1.49,0,0,1,50.54,29a1.75,1.75,0,0,1-.45-1.2,1.62,1.62,0,0,1,.49-1.2,1.51,1.51,0,0,1,1.11-.46,1.38,1.38,0,0,1,.92.32v-.23h.57Z"/><path class="cls-3" d="M53.65,26.8v-.55h.43v-.48l.64-.57v1.07h.6v.55h-.6v1.56a1.71,1.71,0,0,0,0,.46c0,.06.11.08.21.08a.89.89,0,0,0,.34-.06v.57a1.33,1.33,0,0,1-.49.08.82.82,0,0,1-.47-.13.57.57,0,0,1-.23-.32,4.27,4.27,0,0,1,0-.65V26.84h-.43Z"/></g><g class="cls-2"><path class="cls-3" d="M50,13.91a7.9,7.9,0,0,1,1.3.11,2.18,2.18,0,0,1,1,.38,1.71,1.71,0,0,1,.6.74,3.54,3.54,0,0,1,0,2.42,2,2,0,0,1-.6.82,2.36,2.36,0,0,1-1,.44A6,6,0,0,1,50,19H48.47v1.75c0,.34.4.51,1.23.51v.91H45.22v-.91c.66,0,1-.17,1-.51V15.32c0-.34-.34-.51-1-.51v-.91Zm-1.49,1.18v2.69h1a1.5,1.5,0,0,0,1.13-.34,1.65,1.65,0,0,0,.32-1.14,1.19,1.19,0,0,0-.32-.88,1.6,1.6,0,0,0-1.13-.32h-1Z"/></g><g class="cls-2"><path class="cls-3" d="M59.46,20.86c0,.32.11.46.32.46a.23.23,0,0,0,.23-.15.69.69,0,0,0,.09-.32v-.57h.64v.36a1.55,1.55,0,0,1-.15.76,1.14,1.14,0,0,1-.36.46,1.13,1.13,0,0,1-.51.23,2.48,2.48,0,0,1-.55.06,1.41,1.41,0,0,1-1-.32,1.75,1.75,0,0,1-.45-.8,1.56,1.56,0,0,1-.3.46,2.21,2.21,0,0,1-.47.4,2.91,2.91,0,0,1-.64.27,3.31,3.31,0,0,1-.83.11,2.31,2.31,0,0,1-1.51-.42,1.41,1.41,0,0,1-.47-1.14,1.57,1.57,0,0,1,.15-.74,1.49,1.49,0,0,1,.43-.46,2.71,2.71,0,0,1,.66-.29l.83-.19.94-.19a6.13,6.13,0,0,0,1-.27v-.34a1.59,1.59,0,0,0-.06-.44,1,1,0,0,0-.6-.67,1.41,1.41,0,0,0-.53-.11,2.81,2.81,0,0,0-.79.08,2.21,2.21,0,0,0-.55.25,1.11,1.11,0,0,1,.47.15.47.47,0,0,1,.19.42.73.73,0,0,1-.23.55,1,1,0,0,1-.68.21.78.78,0,0,1-.89-.86,1,1,0,0,1,.19-.59,1.74,1.74,0,0,1,.53-.51,2.78,2.78,0,0,1,.87-.34,4.86,4.86,0,0,1,1.17-.13,5.58,5.58,0,0,1,1,.08,3.13,3.13,0,0,1,.92.32,1.83,1.83,0,0,1,.66.61,1.75,1.75,0,0,1,.26,1v2.59Zm-1.92-1.79a9.23,9.23,0,0,1-.94.36,4.31,4.31,0,0,0-.68.29,1.47,1.47,0,0,0-.43.32.82.82,0,0,0-.15.48.58.58,0,0,0,.19.46.89.89,0,0,0,.64.19,1.32,1.32,0,0,0,.81-.25,1.64,1.64,0,0,0,.53-.61V19.07Z"/><path class="cls-3" d="M66.68,18.42l-.89.08a1.42,1.42,0,0,0-.64-.95A2.35,2.35,0,0,0,64,17.28a1.1,1.1,0,0,0-.64.15.42.42,0,0,0-.23.38.45.45,0,0,0,.3.42,2.65,2.65,0,0,0,.72.23l.94.19a4.06,4.06,0,0,1,.94.29,1.88,1.88,0,0,1,.72.55,1.36,1.36,0,0,1,.3.91,1.75,1.75,0,0,1-.17.78,2,2,0,0,1-.47.55,1.84,1.84,0,0,1-.68.32,3.41,3.41,0,0,1-.81.11A5.62,5.62,0,0,1,63.69,22a2.3,2.3,0,0,1-.68-.25l-.15-.06a.4.4,0,0,0-.15,0c-.15,0-.23.13-.28.38h-.89v-2L62,20l.45,0a1.06,1.06,0,0,0,.28.53,1.65,1.65,0,0,0,.51.4,3.06,3.06,0,0,0,.66.25,2.83,2.83,0,0,0,.72.08,1,1,0,0,0,.62-.17.49.49,0,0,0,.21-.42.46.46,0,0,0-.19-.4,1.55,1.55,0,0,0-.53-.21c-.21,0-.47-.11-.77-.15a7.26,7.26,0,0,1-.87-.19,2.34,2.34,0,0,1-1.19-.63A1.59,1.59,0,0,1,61.54,18a1.53,1.53,0,0,1,.53-1.22,2.2,2.2,0,0,1,1.51-.46,3.7,3.7,0,0,1,.72.06,2.87,2.87,0,0,1,.55.17l.4.17a.84.84,0,0,0,.28.06.27.27,0,0,0,.21-.08.67.67,0,0,0,.11-.27h.83v2Z"/><path class="cls-3" d="M73.06,18.42l-.89.08a1.42,1.42,0,0,0-.64-.95,2.35,2.35,0,0,0-1.17-.27,1.1,1.1,0,0,0-.64.15.42.42,0,0,0-.23.38.45.45,0,0,0,.3.42,2.65,2.65,0,0,0,.72.23l.94.19a4.06,4.06,0,0,1,.94.29,1.88,1.88,0,0,1,.72.55,1.36,1.36,0,0,1,.3.91,1.75,1.75,0,0,1-.17.78,2,2,0,0,1-.47.55,1.84,1.84,0,0,1-.68.32,3.41,3.41,0,0,1-.81.11A5.62,5.62,0,0,1,70.08,22a2.3,2.3,0,0,1-.68-.25l-.15-.06a.4.4,0,0,0-.15,0c-.15,0-.23.13-.28.38h-.89v-2l.45,0,.45,0a1.06,1.06,0,0,0,.28.53,1.65,1.65,0,0,0,.51.4,3.06,3.06,0,0,0,.66.25,2.83,2.83,0,0,0,.72.08,1,1,0,0,0,.62-.17.49.49,0,0,0,.21-.42.46.46,0,0,0-.19-.4,1.55,1.55,0,0,0-.53-.21c-.21,0-.47-.11-.77-.15a7.26,7.26,0,0,1-.87-.19,2.34,2.34,0,0,1-1.19-.63A1.59,1.59,0,0,1,67.93,18a1.53,1.53,0,0,1,.53-1.22A2.2,2.2,0,0,1,70,16.33a3.7,3.7,0,0,1,.72.06,2.87,2.87,0,0,1,.55.17l.4.17a.84.84,0,0,0,.28.06.27.27,0,0,0,.21-.08.67.67,0,0,0,.11-.27h.83v2Z"/></g><g class="cls-2"><path class="cls-3" d="M22.93,13.72a10.45,10.45,0,0,1,1.19.06,2.34,2.34,0,0,1,.92.29,1.65,1.65,0,0,1,.6.61,2.25,2.25,0,0,1,.21,1.07,1.66,1.66,0,0,1-.13.67,1.42,1.42,0,0,1-.34.51,1.65,1.65,0,0,1-.51.34,3,3,0,0,1-.62.19,2.8,2.8,0,0,1,1.58.57,1.68,1.68,0,0,1,.55,1.39,3.07,3.07,0,0,1-.19,1.16,1.73,1.73,0,0,1-.57.76,2.55,2.55,0,0,1-1,.4,7,7,0,0,1-1.43.13H18V21c.66,0,1-.17,1-.51V15.22c0-.34-.34-.51-1-.51v-1ZM21.27,15v2.17h1.15a1.09,1.09,0,0,0,.85-.29,1.52,1.52,0,0,0,.23-.93q0-.95-1.09-.95Zm0,3.09v2.63h1.43a1.83,1.83,0,0,0,.64-.11,1,1,0,0,0,.62-.69,2.15,2.15,0,0,0,.06-.55,1.47,1.47,0,0,0-.3-1,1.32,1.32,0,0,0-1-.32Z"/><path class="cls-3" d="M34.44,20.52q0,.51.89.51v.88h-2.9V20.8A2.41,2.41,0,0,1,30.19,22a1.83,1.83,0,0,1-1.32-.4,1.63,1.63,0,0,1-.43-1.24V17.68q0-.51-1-.51v-.88H30.4v3.16a2.34,2.34,0,0,0,.17,1,.58.58,0,0,0,.55.32,1,1,0,0,0,.79-.36,2.72,2.72,0,0,0,.51-1V17.68a.42.42,0,0,0-.19-.38,1.21,1.21,0,0,0-.64-.13v-.88h2.83v4.23Z"/><path class="cls-3" d="M41.38,18.23l-.89.08a1.42,1.42,0,0,0-.64-.95,2.35,2.35,0,0,0-1.17-.27,1.1,1.1,0,0,0-.64.15.42.42,0,0,0-.23.38.45.45,0,0,0,.3.42,2.65,2.65,0,0,0,.72.23l.94.19a4.06,4.06,0,0,1,.94.29,1.88,1.88,0,0,1,.72.55,1.36,1.36,0,0,1,.3.91,1.75,1.75,0,0,1-.17.78,2,2,0,0,1-.47.55,1.84,1.84,0,0,1-.68.32,3.41,3.41,0,0,1-.81.11,5.62,5.62,0,0,1-1.19-.11,2.3,2.3,0,0,1-.68-.25l-.15-.06a.4.4,0,0,0-.15,0c-.15,0-.23.13-.28.38h-.89v-2l.45,0,.45,0a1.06,1.06,0,0,0,.28.53,1.65,1.65,0,0,0,.51.4,3.06,3.06,0,0,0,.66.25,2.83,2.83,0,0,0,.72.08,1,1,0,0,0,.62-.17.49.49,0,0,0,.21-.42.46.46,0,0,0-.19-.4,1.55,1.55,0,0,0-.53-.21c-.21,0-.47-.11-.77-.15a7.26,7.26,0,0,1-.87-.19,2.34,2.34,0,0,1-1.19-.63,1.59,1.59,0,0,1-.34-1.07,1.53,1.53,0,0,1,.53-1.22,2.2,2.2,0,0,1,1.51-.46,3.7,3.7,0,0,1,.72.06,2.87,2.87,0,0,1,.55.17l.4.17a.84.84,0,0,0,.28.06.27.27,0,0,0,.21-.08.67.67,0,0,0,.11-.27h.83v2Z"/></g></g><g id="windows"><path class="cls-4" d="M51.62,51.19"/><path id="bus" class="cls-3" d="M52.24,52.9c-1.06-6,8-6.46,6.68,0l6.75,0c.28-9.05-.36-15-1.32-17.11,0,0,0-1-1.89-1l-35.13,0a3.28,3.28,0,0,0-2.83,2.38c-.92,2.38-1.92,8.57-1.38,14.59.06.15.53,2,3.24.48-.19-6,8.24-4.93,6.77.53"/><ellipse class="cls-3" cx="29.76" cy="51.74" rx="2.83" ry="2.8"/><ellipse class="cls-3" cx="55.67" cy="51.74" rx="2.83" ry="2.8"/><rect id="window" class="cls-1" x="52.58" y="36.2" width="8.22" height="6.67"/><rect id="window-2" class="cls-1" x="43" y="36.2" width="8.22" height="6.67"/><rect id="window-3" class="cls-1" x="34.02" y="36.2" width="7.56" height="6.67"/><path class="cls-1" d="M32.42,36.52s-4.85-.15-5.15,0a2.62,2.62,0,0,0-1.6,1.77,31.3,31.3,0,0,0-.77,4.59v1.94h5.53l2-1.56Z"/></g></g></g></g></svg>