<?xml version="1.0" encoding="utf-8"?>
<!-- Generator: Adobe Illustrator 21.1.0, SVG Export Plug-In . SVG Version: 6.00 Build 0)  -->
<svg version="1.1" id="Layer_1" xmlns="http://www.w3.org/2000/svg" xmlns:xlink="http://www.w3.org/1999/xlink" x="0px" y="0px"
	 viewBox="0 0 218 155" style="enable-background:new 0 0 218 155;" xml:space="preserve">
<style type="text/css">
	.st0{fill:#86BE40;}
	.st1{fill:#FFFFFF;}
	.st2{font-family:'Montserrat-Bold';}
	.st3{font-size:7.2809px;}
</style>
<g id="Layer_1_1_">
	<rect class="st0" width="218" height="155"/>
	<path class="st1" d="M36.9,76.5h-4.1V59.5h4.1V76.5z M33.4,75.8h2.8V60.2h-2.8V75.8z"/>
	<path class="st1" d="M55.6,77.1l-11.9-9.6v9h-4.1V58.8l11.9,9.7v-9h4.1V77.1z M40.3,75.8h2.8V66L55,75.7V60.2h-2.8V70l-11.9-9.7
		V75.8z"/>
	<path class="st1" d="M65.4,76.5h-4.1V63.2h-4.1v-3.7h12.6v3.7h-4.4C65.4,63.3,65.4,76.5,65.4,76.5z M62,75.8h2.8V62.5h4.4v-2.4
		H57.8v2.4H62C62,62.5,62,75.8,62,75.8z"/>
	<path class="st1" d="M82.4,76.5h-11V59.5h9.5v3.7h-5.4v2.4h6.3v3.7h-6.3v3.4h6.9L82.4,76.5L82.4,76.5z M72,75.8h9.7v-2.4h-6.9v-4.8
		h6.3v-2.4h-6.3v-3.7h5.4v-2.4H72L72,75.8L72,75.8z"/>
	<path class="st1" d="M102.6,81.9H97l-7.2-8.2h-1.3v3.2h-4.1V59.5h6.1c1.9,0,3.8,0.6,5.2,2c1.4,1.2,2.1,2.9,2.1,4.8
		c0.1,1.4-0.3,2.7-1,3.9c-0.6,1-1.5,1.7-2.5,2.3L102.6,81.9z M97.4,81.3h3.7l-7.9-9l0.4-0.2c1.1-0.5,2-1.2,2.6-2.2
		c0.6-1.1,1-2.3,0.9-3.6c0-1.6-0.7-3.2-1.9-4.3c-1.3-1.2-3-1.8-4.7-1.8h-5.5v16h2.8v-3.2h2.2L97.4,81.3z M87.9,70.6v-8h2.5
		c1.1-0.1,2.2,0.4,2.9,1.2c0.7,0.7,1,1.8,1,2.7c0.1,1.1-0.4,2.2-1.2,3c-0.9,0.7-2.2,1.1-3.4,1.1H87.9z M88.6,69.9h1.1
		c1,0.1,2.1-0.3,3-0.9c0.7-0.6,1-1.6,0.9-2.6c0.1-0.9-0.3-1.7-0.8-2.4c-0.6-0.6-1.5-1-2.5-0.9h-1.8L88.6,69.9z"/>
	<path class="st1" d="M116.2,76.5h-4.5l-1.1-2.1h-7.7l-2.3,5.9L99,78.5l-1.3-1.3l9.1-18.4L116.2,76.5z M104.7,70.6h4l-2-4
		L104.7,70.6z"/>
	<path class="st1" d="M117.6,74.2c-0.8-0.8-1.5-1.7-1.9-2.7c-1.4-3.3-0.7-7,1.9-9.6c0.8-0.8,1.8-1.4,2.8-1.9
		c1.1-0.5,2.3-0.7,3.4-0.7c1.6,0,3.1,0.4,4.4,1.1c1.3,0.7,2.4,1.7,3.2,2.9l0.2,0.3l-3.2,2.2l-0.2-0.3c-0.5-0.7-1.2-1.4-2-1.8
		c-0.7-0.4-1.5-0.6-2.3-0.6c-1.3,0-2.5,0.5-3.3,1.4c-0.9,0.9-1.4,2.2-1.4,3.5s0.5,2.5,1.4,3.4c0.8,0.9,2,1.4,3.3,1.4
		c1.1,0,2.2-0.4,3.1-1.1c0.9-0.7,1.5-1.7,1.7-2.8l0.1-0.3h4.2V69c-0.5,4.4-4.4,7.8-9,7.8C121.5,76.7,119.2,75.8,117.6,74.2z"/>
	<path class="st1" d="M140.7,76.5h-4.1V63.2h-4.1v-3.7H145v3.7h-4.4L140.7,76.5z"/>
	<path class="st1" d="M150.8,76.5h-4.2V59.5h4.1L150.8,76.5L150.8,76.5z M150.1,60.2L150.1,60.2z"/>
	<path class="st1" d="M158.3,76c-1-0.5-2-1.1-2.9-1.8c-0.8-0.8-1.5-1.7-1.9-2.8c-0.9-2.2-0.9-4.7,0-6.9c0.5-1,1.1-2,1.9-2.7
		c0.8-0.8,1.8-1.4,2.8-1.8c4.6-1.9,9.8,0.3,11.7,4.7c1.4,3.3,0.6,7-1.9,9.5c-0.8,0.7-1.8,1.4-2.8,1.8C163,76.9,160.5,76.9,158.3,76z
		 M158.4,64.6c-1.8,1.9-1.8,4.9,0,6.9c0.9,0.9,2.1,1.4,3.4,1.4c1.3,0,2.5-0.5,3.3-1.4c1.8-1.9,1.8-4.9,0-6.9
		c-1.7-1.8-4.6-1.9-6.5-0.2C158.5,64.5,158.4,64.5,158.4,64.6z"/>
	<path class="st1" d="M188.7,77.1l-11.9-9.6v9h-4.1V58.8l11.9,9.7v-9h4.1L188.7,77.1z M188,75.7l-14.7-15.5"/>
	<path class="st1" d="M34.7,99.6c-0.8-0.8-1.5-1.7-1.9-2.7c-0.9-2.2-0.9-4.7,0-6.9c0.4-1,1.1-2,1.9-2.7c0.8-0.8,1.8-1.4,2.8-1.9
		c1.1-0.5,2.3-0.7,3.4-0.7c1.6,0,3.1,0.4,4.4,1.1c1.3,0.7,2.4,1.7,3.2,2.9l0.2,0.3l-3.2,2.2L45.3,91c-0.5-0.7-1.2-1.4-2-1.8
		c-0.7-0.4-1.5-0.6-2.3-0.6c-1.3,0-2.5,0.5-3.3,1.4c-0.9,0.9-1.4,2.2-1.4,3.5c0,1.3,0.5,2.5,1.4,3.4c0.8,0.9,2,1.4,3.3,1.4
		c1.1,0,2.2-0.4,3.1-1.1c0.9-0.7,1.5-1.7,1.7-2.8l0.1-0.3h4.2v0.4c-0.5,4.4-4.4,7.8-8.9,7.8C38.6,102.2,36.3,101.2,34.7,99.6z"/>
	<path class="st1" d="M56.7,101.5c-1-0.5-2-1.1-2.9-1.8c-0.8-0.8-1.5-1.7-1.9-2.8c-0.9-2.2-0.9-4.7,0-6.9c0.5-1,1.1-2,1.9-2.7
		c0.8-0.8,1.8-1.4,2.9-1.8c4.6-1.8,9.8,0.3,11.7,4.8c1.4,3.3,0.6,7-1.9,9.5c-0.8,0.7-1.8,1.4-2.8,1.8
		C61.4,102.4,58.9,102.4,56.7,101.5L56.7,101.5z M56.8,90.1C55,92,55,95,56.8,97c0.9,0.9,2.1,1.4,3.4,1.4c1.3,0,2.5-0.5,3.3-1.4
		c1.8-1.9,1.8-4.9,0-6.9c-1.7-1.8-4.6-1.9-6.5-0.2C57,89.8,56.9,89.9,56.8,90.1L56.8,90.1z"/>
	<path class="st1" d="M82,101.9H71.2V85h4.1v13.2H82L82,101.9L82,101.9L82,101.9z M81.3,101.2L81.3,101.2z"/>
	<path class="st1" d="M94.3,101.9H83.5V85h4.1v13.2h6.7L94.3,101.9z M93.7,101.2L93.7,101.2z"/>
	<path class="st1" d="M106.8,101.9h-11V85h9.6v3.7H100v2.4h6.3v3.7H100v3.4h6.8V101.9z M96.5,101.2h9.7"/>
	<path class="st1" d="M110.8,99.6c-0.8-0.8-1.5-1.7-1.9-2.7c-1.4-3.3-0.7-7,1.9-9.6c0.8-0.8,1.8-1.4,2.8-1.9
		c1.1-0.5,2.3-0.7,3.4-0.7c1.6,0,3.1,0.4,4.4,1.1c1.3,0.7,2.4,1.7,3.2,2.9l0.2,0.3l-3.2,2.2l-0.2-0.3c-0.5-0.7-1.2-1.4-2-1.8
		c-0.7-0.4-1.5-0.6-2.3-0.6c-1.3,0-2.5,0.5-3.3,1.4c-0.9,0.9-1.4,2.2-1.4,3.5c0,1.3,0.5,2.5,1.4,3.4c0.8,0.9,2,1.4,3.3,1.4
		c1.1,0,2.2-0.4,3.1-1.1c0.9-0.7,1.5-1.7,1.7-2.8l0.1-0.3h4.2v0.4c-0.5,4.4-4.4,7.8-8.9,7.8C114.7,102.3,112.4,101.2,110.8,99.6z"/>
	<path class="st1" d="M133.9,101.9h-4.1V88.7h-4.1V85h12.6v3.7h-4.4L133.9,101.9z"/>
	<path class="st1" d="M144,101.9h-4.1V85h4.1V101.9z"/>
	<path class="st1" d="M154.3,102.5L144.8,85h4.8l4.8,9.1l4.5-9.1h4.3L154.3,102.5z M162.1,85.6L162.1,85.6z"/>
	<path class="st1" d="M174.7,101.9h-11V85h9.5v3.7h-5.4v2.4h6.3v3.7h-6.3v3.4h6.8L174.7,101.9L174.7,101.9z M174,101.2L174,101.2z"
		/>
	<text transform="matrix(1.0239 0 0 1 32.6108 55.3608)" class="st1 st2 st3">THE</text>
	<path class="st1" d="M98,38.2"/>
</g>
</svg>
