<?xml version="1.0" encoding="utf-8"?>
<!-- Generator: Adobe Illustrator 21.1.0, SVG Export Plug-In . SVG Version: 6.00 Build 0)  -->
<svg version="1.1" id="Layer_1" xmlns="http://www.w3.org/2000/svg" xmlns:xlink="http://www.w3.org/1999/xlink" x="0px" y="0px"
	 viewBox="0 0 417.6 288" style="enable-background:new 0 0 417.6 288;" xml:space="preserve">
<style type="text/css">
	.st0{fill:#86BE40;}
	.st1{fill:#FFFFFF;}
	.st2{font-family:'Montserrat-Bold';}
	.st3{font-size:14.28px;}
</style>
<title>interaction</title>
<g id="Layer_1_1_">
	<rect class="st0" width="417.6" height="288"/>
	<path class="st1" d="M70.8,139.2h-7.9V106h7.9V139.2z M64.2,137.9h5.3v-30.6h-5.3L64.2,137.9z"/>
	<path class="st1" d="M106.7,140.5L84,121.6v17.6h-7.9v-34.6l22.7,19.1V106h7.9L106.7,140.5z M77.4,137.9h5.4v-19.1l22.7,18.9v-30.4
		h-5.4v19.2l-22.7-19.1L77.4,137.9z"/>
	<path class="st1" d="M125.5,139.2h-7.9v-25.9h-7.9V106h24.2v7.3h-8.4V139.2z M118.9,137.9h5.4V112h8.4v-4.7H111v4.7h7.9V137.9z"/>
	<path class="st1" d="M158,139.2h-21.1V106h18.2v7.3h-10.3v4.7h12v7.2h-12v6.7H158L158,139.2z M138.2,137.9h18.5v-4.7h-13.2v-9.3h12
		v-4.7h-12V112h10.3v-4.7h-15.7V137.9z"/>
	<path class="st1" d="M196.7,149.9h-10.6l-13.8-16.2h-2.4v6.2h-7.9V106h11.7c3.7,0,7.2,1.3,9.9,3.9c2.6,2.4,4,5.8,4,9.3
		c0.1,2.7-0.6,5.4-2,7.7c-1.2,1.9-2.8,3.4-4.8,4.5L196.7,149.9z M186.7,148.6h7.1l-15.1-17.7l0.8-0.4c2.1-0.9,3.8-2.4,5-4.4
		c1.2-2.1,1.9-4.5,1.8-7c0-3.2-1.3-6.2-3.6-8.4c-2.4-2.3-5.7-3.6-9-3.5h-10.5v31.3h5.4v-6.2h4.3L186.7,148.6z M168.6,127.6V112h4.7
		c2.1-0.1,4.2,0.7,5.6,2.3c1.3,1.5,1.9,3.5,1.9,5.4c0.1,2.2-0.7,4.4-2.3,5.9c-1.8,1.5-4.2,2.2-6.5,2.1L168.6,127.6z M169.9,126.3
		h2.1c2,0.2,4.1-0.5,5.7-1.7c1.3-1.3,2-3.1,1.8-5c0.1-1.7-0.5-3.3-1.5-4.6c-1.2-1.3-2.9-1.9-4.7-1.8h-3.4L169.9,126.3z"/>
	<path class="st1" d="M222.8,139.2h-8.7l-2.1-4.2h-14.7l-4.5,11.5l-3-3.3l-2.5-2.6l17.5-36L222.8,139.2z M200.8,127.6h7.6l-3.9-7.8
		L200.8,127.6z"/>
	<path class="st1" d="M225.4,134.7c-1.5-1.6-2.8-3.4-3.6-5.4c-2.7-6.4-1.3-13.8,3.6-18.8c1.6-1.6,3.4-2.8,5.4-3.7
		c2.1-0.9,4.4-1.4,6.6-1.4c3,0,5.9,0.8,8.5,2.2c2.5,1.4,4.6,3.4,6.1,5.8l0.3,0.5l-6.2,4.4l-0.3-0.6c-1-1.5-2.3-2.7-3.9-3.6
		c-1.4-0.8-2.9-1.2-4.5-1.2c-2.4,0-4.7,1-6.3,2.8c-1.7,1.8-2.6,4.3-2.6,6.8c0,2.5,0.9,4.9,2.6,6.7c1.6,1.7,3.9,2.7,6.3,2.7
		c2.2,0,4.3-0.8,5.9-2.2c1.7-1.4,2.8-3.4,3.2-5.6l0.1-0.5h8v0.7c-1,8.7-8.4,15.3-17.2,15.2C232.9,139.7,228.6,137.9,225.4,134.7z"/>
	<path class="st1" d="M269.7,139.2h-7.9v-25.9h-7.9V106H278v7.3h-8.4L269.7,139.2z"/>
	<path class="st1" d="M289,139.2H281V106h7.9V139.2z M287.7,107.3L287.7,107.3z"/>
	<path class="st1" d="M303.4,138.4c-2-0.9-3.9-2.1-5.5-3.6c-1.6-1.6-2.8-3.4-3.7-5.5c-1.8-4.3-1.8-9.1,0-13.4c0.9-2,2.1-3.9,3.7-5.4
		c1.6-1.6,3.4-2.8,5.4-3.6c8.8-3.7,18.8,0.5,22.5,9.2c2.7,6.4,1.2,13.8-3.6,18.7c-1.6,1.5-3.4,2.8-5.4,3.6
		C312.5,140.2,307.6,140.2,303.4,138.4z M303.6,115.8c-3.5,3.8-3.5,9.7,0,13.5c1.7,1.8,4,2.7,6.5,2.7c2.4,0,4.7-1,6.4-2.7
		c3.5-3.8,3.5-9.7,0-13.5c-3.3-3.5-8.9-3.7-12.5-0.4C303.9,115.6,303.7,115.7,303.6,115.8z"/>
	<path class="st1" d="M361.7,140.5L339,121.6v17.6h-7.9v-34.6l22.8,19.1V106h7.9L361.7,140.5z M360.4,137.7l-28.1-30.3"/>
	<path class="st1" d="M66.6,184.7c-1.5-1.6-2.8-3.4-3.6-5.4c-1.8-4.3-1.8-9.1,0-13.4c0.8-2,2.1-3.9,3.6-5.4c1.6-1.6,3.4-2.8,5.4-3.7
		c2.1-0.9,4.4-1.4,6.6-1.4c3,0,5.9,0.8,8.5,2.2c2.5,1.4,4.6,3.4,6.1,5.8l0.3,0.5l-6.2,4.4l-0.3-0.6c-1-1.5-2.3-2.7-3.9-3.6
		c-1.4-0.8-2.9-1.2-4.5-1.2c-2.4,0-4.7,1-6.3,2.8c-1.7,1.8-2.6,4.3-2.6,6.8c0,2.5,0.9,4.9,2.6,6.7c1.6,1.7,3.9,2.7,6.3,2.7
		c2.2,0,4.3-0.8,5.9-2.2c1.7-1.4,2.8-3.4,3.2-5.6l0.1-0.5h8v0.7c-1,8.7-8.4,15.2-17.1,15.2C74.2,189.7,69.8,187.9,66.6,184.7z"/>
	<path class="st1" d="M108.8,188.3c-2-0.9-3.9-2.1-5.5-3.6c-1.6-1.6-2.8-3.4-3.7-5.5c-1.8-4.3-1.8-9.1,0-13.4c0.9-2,2.1-3.9,3.7-5.4
		c1.6-1.6,3.4-2.8,5.5-3.6c8.8-3.6,18.8,0.6,22.4,9.3c2.6,6.4,1.2,13.7-3.6,18.6c-1.6,1.5-3.4,2.8-5.4,3.6
		C117.9,190.2,113.1,190.2,108.8,188.3L108.8,188.3z M109,165.8c-3.5,3.8-3.5,9.7,0,13.5c1.7,1.8,4,2.7,6.5,2.7c2.4,0,4.7-1,6.4-2.7
		c3.5-3.8,3.5-9.7,0-13.5c-3.3-3.5-8.9-3.7-12.5-0.4C109.3,165.5,109.2,165.7,109,165.8L109,165.8z"/>
	<path class="st1" d="M157.3,189.2h-20.8V156h7.9v25.9h12.8V189.2z M156,187.9L156,187.9z"/>
	<path class="st1" d="M180.9,189.2h-20.8V156h7.9v25.9h12.9L180.9,189.2z M179.6,187.9L179.6,187.9z"/>
	<path class="st1" d="M204.8,189.2h-21.1V156H202v7.3h-10.3v4.7h12v7.2h-12v6.7h13.1V189.2z M185,187.9h18.5"/>
	<path class="st1" d="M212.4,184.7c-1.5-1.6-2.8-3.4-3.6-5.4c-2.7-6.4-1.3-13.8,3.6-18.8c1.6-1.6,3.4-2.8,5.4-3.7
		c2.1-0.9,4.4-1.4,6.6-1.4c3,0,5.9,0.8,8.5,2.2c2.5,1.4,4.6,3.4,6.1,5.8l0.3,0.5l-6.2,4.4l-0.3-0.6c-1-1.5-2.3-2.7-3.9-3.6
		c-1.4-0.8-2.9-1.2-4.5-1.2c-2.4,0-4.7,1-6.3,2.8c-1.7,1.8-2.6,4.3-2.6,6.8c0,2.5,0.9,4.9,2.6,6.7c1.6,1.7,3.9,2.7,6.3,2.7
		c2.2,0,4.3-0.8,5.9-2.2c1.7-1.4,2.8-3.4,3.2-5.6l0.1-0.5h8v0.7c-1,8.7-8.4,15.2-17.1,15.2C220,189.8,215.6,187.9,212.4,184.7z"/>
	<path class="st1" d="M256.7,189.2h-7.9v-25.9h-7.9V156H265v7.3h-8.4L256.7,189.2z"/>
	<path class="st1" d="M276,189.2h-7.9V156h7.9V189.2z"/>
	<path class="st1" d="M295.7,190.4L277.5,156h9.1l9.2,17.9l8.7-17.9h8.3L295.7,190.4z M310.8,157.2L310.8,157.2z"/>
	<path class="st1" d="M334.9,189.2h-21.1V156h18.2v7.3h-10.3v4.7h12v7.2h-12v6.7h13.1V189.2z M333.6,187.9L333.6,187.9z"/>
	<text transform="matrix(1 0 0 1 62.63 97.83)" class="st1 st2 st3">THE</text>
	<path class="st1" d="M187.9,64.1"/>
</g>
</svg>
