<svg xmlns="http://www.w3.org/2000/svg" viewBox="0 0 88 60"><defs><style>.cls-1{fill:#86be40;}.cls-2,.cls-3{fill:#fff;}.cls-3{isolation:isolate;font-size:2.82px;font-family:Montserrat-Bold, Montserrat;font-weight:700;}</style></defs><title>Asset 3</title><g id="Layer_2" data-name="Layer 2"><g id="Layer_1-2" data-name="Layer 1"><g id="Layer_1-3" data-name="Layer 1"><rect class="cls-1" width="88" height="60"/><path class="cls-2" d="M14.88,29.6H13.21V23h1.66Zm-1.39-.27H14.6v-6H13.49Z"/><path class="cls-2" d="M22.44,29.84l-4.78-3.73V29.6H16V22.78l4.78,3.75V23h1.66Zm-6.17-.52h1.14V25.55l4.78,3.73v-6H21.05v3.79l-4.78-3.77Z"/><path class="cls-2" d="M26.4,29.6H24.74V24.48H23.07V23h5.1v1.45H26.4ZM25,29.33h1.14V24.21h1.77v-.93H23.35v.93H25Z"/><path class="cls-2" d="M33.25,29.6H28.81V23h3.84V24.5H30.47v.93H33v1.43H30.47v1.33h2.78V29.6Zm-4.17-.27H33v-.93H30.2V26.55h2.53v-.93H30.2V24.19h2.17v-.93H29.06l0,6.07Z"/><path class="cls-2" d="M41.41,31.69H39.17L36.27,28.5h-.51v1.22H34.1V23h2.47a3.05,3.05,0,0,1,2.09.77,2.42,2.42,0,0,1,.84,1.84,2.58,2.58,0,0,1-.42,1.51,2.79,2.79,0,0,1-1,.89Zm-2.11-.23h1.5L37.61,28l.17-.08A2.27,2.27,0,0,0,38.84,27a2.47,2.47,0,0,0,.38-1.39A2.23,2.23,0,0,0,38.46,24a2.74,2.74,0,0,0-1.9-.68H34.35v6.18h1.14V28.23h.91Zm-3.81-4.15V24.23h1a1.47,1.47,0,0,1,1.58,1.51,1.44,1.44,0,0,1-.48,1.16,2.14,2.14,0,0,1-1.37.41Zm.27-.25h.44a1.89,1.89,0,0,0,1.2-.33,1.18,1.18,0,0,0,.38-1,1.34,1.34,0,0,0-.32-.91,1.3,1.3,0,0,0-1-.35h-.72Z"/><path class="cls-2" d="M46.91,29.6H45.07l-.44-.83h-3.1L40.59,31,40,30.4l-.53-.52,3.69-7.11Zm-4.64-2.28h1.6l-.82-1.53Z"/><path class="cls-2" d="M47.46,28.7a3.39,3.39,0,0,1-.76-1.06,3.25,3.25,0,0,1,.76-3.71,3.65,3.65,0,0,1,1.14-.73A3.61,3.61,0,0,1,50,22.94a4.07,4.07,0,0,1,1.79.44,3.39,3.39,0,0,1,1.29,1.14l.06.1-1.31.87-.06-.12a2.24,2.24,0,0,0-.82-.7,1.89,1.89,0,0,0-.95-.23,1.85,1.85,0,0,0-1.33.56,1.9,1.9,0,0,0-.55,1.35,1.85,1.85,0,0,0,.55,1.33,1.92,1.92,0,0,0,1.33.54,2,2,0,0,0,1.24-.44,1.79,1.79,0,0,0,.67-1.1l0-.1h1.69v.15a3.54,3.54,0,0,1-3.62,3A4,4,0,0,1,47.46,28.7Z"/><path class="cls-2" d="M56.79,29.6H55.13V24.48H53.46V23h5.08v1.45H56.77Z"/><path class="cls-2" d="M60.86,29.6H59.17V23h1.66V29.6Zm-.27-6.28Z"/><path class="cls-2" d="M63.89,29.43a4.66,4.66,0,0,1-1.16-.7A3.31,3.31,0,0,1,62,27.65a3.33,3.33,0,0,1,1.92-4.41,3.72,3.72,0,0,1,4.74,1.82,3.24,3.24,0,0,1-.76,3.69,3.59,3.59,0,0,1-1.14.7A4,4,0,0,1,63.89,29.43Zm0-4.44a1.89,1.89,0,0,0,0,2.67,1.93,1.93,0,0,0,1.37.54,2,2,0,0,0,1.35-.54,1.89,1.89,0,0,0,0-2.67A2,2,0,0,0,64,24.91S64,25,63.93,25Z"/><path class="cls-2" d="M76.18,29.84l-4.78-3.73V29.6H69.73V22.78l4.8,3.77V23H76.2Zm-.27-.56L70,23.3"/><path class="cls-2" d="M14,38.57a3.39,3.39,0,0,1-.76-1.06,3.23,3.23,0,0,1,0-2.65A3.16,3.16,0,0,1,14,33.8a3.65,3.65,0,0,1,1.14-.73,3.61,3.61,0,0,1,1.39-.27,4.07,4.07,0,0,1,1.79.44,3.39,3.39,0,0,1,1.29,1.14l.06.1-1.31.87-.06-.12a2.24,2.24,0,0,0-.82-.7,1.89,1.89,0,0,0-.95-.23,1.85,1.85,0,0,0-1.33.56,1.9,1.9,0,0,0-.55,1.35,1.85,1.85,0,0,0,.55,1.33,1.92,1.92,0,0,0,1.33.54,2,2,0,0,0,1.24-.44,1.79,1.79,0,0,0,.67-1.1l0-.1h1.69v.15a3.55,3.55,0,0,1-3.6,3A4,4,0,0,1,14,38.57Z"/><path class="cls-2" d="M22.89,39.3a4.66,4.66,0,0,1-1.16-.7,3.31,3.31,0,0,1-.78-1.08,3.19,3.19,0,0,1,.78-3.71,3.16,3.16,0,0,1,1.16-.7,3.72,3.72,0,0,1,4.72,1.84,3.25,3.25,0,0,1-.76,3.67,3.59,3.59,0,0,1-1.14.7,4,4,0,0,1-2.82,0Zm0-4.44a1.89,1.89,0,0,0,0,2.67,1.93,1.93,0,0,0,1.37.54,2,2,0,0,0,1.35-.54,1.89,1.89,0,0,0,0-2.67A2,2,0,0,0,23,34.78s0,0-.08.08Z"/><path class="cls-2" d="M33.11,39.46H28.72V32.91h1.66V38h2.7v1.45h0Zm-.27-.27Z"/><path class="cls-2" d="M38.08,39.46H33.7V32.91h1.66V38h2.72Zm-.27-.27Z"/><path class="cls-2" d="M43.11,39.46H38.67V32.91h3.86v1.45H40.35v.93h2.53v1.43H40.35v1.33h2.76Zm-4.17-.27h3.9"/><path class="cls-2" d="M44.72,38.57A3.39,3.39,0,0,1,44,37.51a3.25,3.25,0,0,1,.76-3.71,3.65,3.65,0,0,1,1.14-.73,3.61,3.61,0,0,1,1.39-.27,4.07,4.07,0,0,1,1.79.44,3.39,3.39,0,0,1,1.29,1.14l.06.1-1.31.87L49,35.23a2.24,2.24,0,0,0-.82-.7,1.89,1.89,0,0,0-.95-.23,1.85,1.85,0,0,0-1.33.56,1.9,1.9,0,0,0-.55,1.35,1.85,1.85,0,0,0,.55,1.33,1.92,1.92,0,0,0,1.33.54,2,2,0,0,0,1.24-.44,1.79,1.79,0,0,0,.67-1.1l0-.1h1.69v.15a3.55,3.55,0,0,1-3.6,3A3.83,3.83,0,0,1,44.72,38.57Z"/><path class="cls-2" d="M54.05,39.46H52.39V34.34H50.72V32.89H55.8v1.45H54Z"/><path class="cls-2" d="M58.12,39.46H56.45V32.91h1.66Z"/><path class="cls-2" d="M62.27,39.69l-3.84-6.8h1.92l1.94,3.52,1.83-3.52h1.75Zm3.18-6.55Z"/><path class="cls-2" d="M70.53,39.46H66.08V32.91h3.84v1.45H67.75v.93h2.53v1.43H67.75v1.33h2.76l0,1.41Zm-.27-.27Z"/><text class="cls-3" transform="translate(13.16 21.43) scale(1.07 1)">THE</text><path class="cls-2" d="M39.55,14.78"/></g></g></g></svg>