<?xml version="1.0" encoding="utf-8"?>
<!-- Generator: Adobe Illustrator 21.1.0, SVG Export Plug-In . SVG Version: 6.00 Build 0)  -->
<svg version="1.1" id="Layer_1" xmlns="http://www.w3.org/2000/svg" xmlns:xlink="http://www.w3.org/1999/xlink" x="0px" y="0px"
	 viewBox="0 0 417.6 289.5" style="enable-background:new 0 0 417.6 289.5;" xml:space="preserve">
<style type="text/css">
	.st0{fill:#86BE40;}
	.st1{fill:#FFFFFF;}
	.st2{font-family:'Montserrat-Bold';}
	.st3{font-size:13.5989px;}
</style>
<title>interaction</title>
<g id="Layer_1_1_">
	<rect class="st0" width="417.6" height="289.5"/>
	<path class="st1" d="M70.6,142.8h-7.9v-31.6h7.9V142.8z M64,141.5h5.3v-29.1H64V141.5z"/>
	<path class="st1" d="M106.5,144l-22.7-18v16.8h-7.9v-32.9L98.6,128v-16.9h7.9V144z M77.2,141.5h5.4v-18.2l22.7,18v-28.9h-5.4v18.3
		l-22.7-18.2V141.5z"/>
	<path class="st1" d="M125.3,142.8h-7.9v-24.7h-7.9v-7h24.2v7h-8.4C125.3,118.2,125.3,142.8,125.3,142.8z M118.7,141.5h5.4v-24.7
		h8.4v-4.5h-21.7v4.5h7.9C118.7,116.8,118.7,141.5,118.7,141.5z"/>
	<path class="st1" d="M157.8,142.8h-21.1v-31.6h18.2v7h-10.3v4.5h12v6.9h-12v6.4h13.2L157.8,142.8L157.8,142.8z M138,141.5h18.5V137
		h-13.2v-8.9h12v-4.5h-12v-6.9h10.3v-4.5h-15.7L138,141.5L138,141.5z"/>
	<path class="st1" d="M196.5,152.9h-10.6l-13.8-15.4h-2.4v5.9h-7.9v-32.3h11.7c3.7,0,7.2,1.2,9.9,3.7c2.6,2.3,4,5.5,4,8.9
		c0.1,2.6-0.6,5.1-2,7.3c-1.2,1.8-2.8,3.2-4.8,4.3L196.5,152.9z M186.5,151.8h7.1l-15.1-16.9l0.8-0.4c2.1-0.9,3.8-2.3,5-4.2
		c1.2-2,1.9-4.3,1.8-6.7c0-3-1.3-5.9-3.6-8c-2.4-2.2-5.7-3.4-9-3.3H163v29.8h5.4v-5.9h4.3L186.5,151.8z M168.4,131.8v-14.9h4.7
		c2.1-0.1,4.2,0.7,5.6,2.2c1.3,1.4,1.9,3.3,1.9,5.1c0.1,2.1-0.7,4.2-2.3,5.6c-1.8,1.4-4.2,2.1-6.5,2H168.4z M169.7,130.6h2.1
		c2,0.2,4.1-0.5,5.7-1.6c1.3-1.2,2-3,1.8-4.8c0.1-1.6-0.5-3.1-1.5-4.4c-1.2-1.2-2.9-1.8-4.7-1.7h-3.4L169.7,130.6z"/>
	<path class="st1" d="M222.6,142.8h-8.7l-2.1-4h-14.7l-4.5,11l-3-3.1l-2.5-2.5l17.5-34.3L222.6,142.8z M200.6,131.8h7.6l-3.9-7.4
		L200.6,131.8z"/>
	<path class="st1" d="M225.2,138.5c-1.5-1.5-2.8-3.2-3.6-5.1c-2.7-6.1-1.3-13.1,3.6-17.9c1.6-1.5,3.4-2.7,5.4-3.5
		c2.1-0.9,4.4-1.3,6.6-1.3c3,0,5.9,0.8,8.5,2.1c2.5,1.3,4.6,3.2,6.1,5.5l0.3,0.5l-6.2,4.2l-0.3-0.6c-1-1.4-2.3-2.6-3.9-3.4
		c-1.4-0.8-2.9-1.1-4.5-1.1c-2.4,0-4.7,1-6.3,2.7c-1.7,1.7-2.6,4.1-2.6,6.5s0.9,4.7,2.6,6.4c1.6,1.6,3.9,2.6,6.3,2.6
		c2.2,0,4.3-0.8,5.9-2.1c1.7-1.3,2.8-3.2,3.2-5.3l0.1-0.5h8v0.7c-1,8.3-8.4,14.6-17.2,14.5C232.7,143.2,228.4,141.5,225.2,138.5z"/>
	<path class="st1" d="M269.5,142.8h-7.9v-24.7h-7.9v-7h24.1v7h-8.4L269.5,142.8z"/>
	<path class="st1" d="M288.8,142.8h-8v-31.6h7.9v31.6H288.8z M287.5,112.5L287.5,112.5z"/>
	<path class="st1" d="M303.2,142c-2-0.9-3.9-2-5.5-3.4c-1.6-1.5-2.8-3.2-3.7-5.2c-1.8-4.1-1.8-8.7,0-12.8c0.9-1.9,2.1-3.7,3.7-5.1
		c1.6-1.5,3.4-2.7,5.4-3.4c8.8-3.5,18.8,0.5,22.5,8.8c2.7,6.1,1.2,13.1-3.6,17.8c-1.6,1.4-3.4,2.7-5.4,3.4
		C312.3,143.7,307.4,143.7,303.2,142z M303.4,120.6c-3.5,3.6-3.5,9.2,0,12.9c1.7,1.7,4,2.6,6.5,2.6c2.4,0,4.7-1,6.4-2.6
		c3.5-3.6,3.5-9.2,0-12.9c-3.3-3.3-8.9-3.5-12.5-0.4C303.7,120.4,303.5,120.4,303.4,120.6z"/>
	<path class="st1" d="M361.5,144l-22.7-18v16.8h-7.9v-32.9l22.8,18.2v-16.9h7.9L361.5,144z M360.2,141.3l-28.1-28.9"/>
	<path class="st1" d="M66.4,186.1c-1.5-1.5-2.8-3.2-3.6-5.1c-1.8-4.1-1.8-8.7,0-12.8c0.8-1.9,2.1-3.7,3.6-5.1
		c1.6-1.5,3.4-2.7,5.4-3.5c2.1-0.9,4.4-1.3,6.6-1.3c3,0,5.9,0.8,8.5,2.1c2.5,1.3,4.6,3.2,6.1,5.5l0.3,0.5l-6.2,4.2l-0.3-0.6
		c-1-1.4-2.3-2.6-3.9-3.4c-1.4-0.8-2.9-1.1-4.5-1.1c-2.4,0-4.7,1-6.3,2.7c-1.7,1.7-2.6,4.1-2.6,6.5s0.9,4.7,2.6,6.4
		c1.6,1.6,3.9,2.6,6.3,2.6c2.2,0,4.3-0.8,5.9-2.1c1.7-1.3,2.8-3.2,3.2-5.3l0.1-0.5h8v0.7c-1,8.3-8.4,14.5-17.1,14.5
		C74,190.8,69.6,189.1,66.4,186.1z"/>
	<path class="st1" d="M108.6,189.6c-2-0.9-3.9-2-5.5-3.4c-1.6-1.5-2.8-3.2-3.7-5.2c-1.8-4.1-1.8-8.7,0-12.8c0.9-1.9,2.1-3.7,3.7-5.1
		c1.6-1.5,3.4-2.7,5.5-3.4c8.8-3.4,18.8,0.6,22.4,8.9c2.6,6.1,1.2,13-3.6,17.7c-1.6,1.4-3.4,2.7-5.4,3.4
		C117.7,191.3,112.9,191.3,108.6,189.6L108.6,189.6z M108.8,168.2c-3.5,3.6-3.5,9.2,0,12.9c1.7,1.7,4,2.6,6.5,2.6
		c2.4,0,4.7-1,6.4-2.6c3.5-3.6,3.5-9.2,0-12.9c-3.3-3.3-8.9-3.5-12.5-0.4C109.1,167.8,109,168,108.8,168.2L108.8,168.2z"/>
	<path class="st1" d="M157.1,190.4h-20.8v-31.6h7.9v24.7H157v7L157.1,190.4L157.1,190.4z M155.8,189.1L155.8,189.1z"/>
	<path class="st1" d="M180.7,190.4h-20.8v-31.6h7.9v24.7h12.9L180.7,190.4z M179.4,189.1L179.4,189.1z"/>
	<path class="st1" d="M204.6,190.4h-21.1v-31.6h18.3v7h-10.3v4.5h12v6.9h-12v6.4h13.1V190.4z M184.8,189.1h18.5"/>
	<path class="st1" d="M212.2,186.1c-1.5-1.5-2.8-3.2-3.6-5.1c-2.7-6.1-1.3-13.1,3.6-17.9c1.6-1.5,3.4-2.7,5.4-3.5
		c2.1-0.9,4.4-1.3,6.6-1.3c3,0,5.9,0.8,8.5,2.1c2.5,1.3,4.6,3.2,6.1,5.5l0.3,0.5l-6.2,4.2l-0.3-0.6c-1-1.4-2.3-2.6-3.9-3.4
		c-1.4-0.8-2.9-1.1-4.5-1.1c-2.4,0-4.7,1-6.3,2.7c-1.7,1.7-2.6,4.1-2.6,6.5s0.9,4.7,2.6,6.4c1.6,1.6,3.9,2.6,6.3,2.6
		c2.2,0,4.3-0.8,5.9-2.1c1.7-1.3,2.8-3.2,3.2-5.3l0.1-0.5h8v0.7c-1,8.3-8.4,14.5-17.1,14.5C219.8,191,215.4,189.1,212.2,186.1z"/>
	<path class="st1" d="M256.5,190.4h-7.9v-24.7h-7.9v-7h24.1v7h-8.4L256.5,190.4z"/>
	<path class="st1" d="M275.8,190.4h-7.9v-31.6h7.9V190.4z"/>
	<path class="st1" d="M295.5,191.5l-18.2-32.8h9.1l9.2,17l8.7-17h8.3L295.5,191.5z M310.6,159.9L310.6,159.9z"/>
	<path class="st1" d="M334.7,190.4h-21.1v-31.6h18.2v7h-10.3v4.5h12v6.9h-12v6.4h13.1L334.7,190.4L334.7,190.4z M333.4,189.1
		L333.4,189.1z"/>
	<text transform="matrix(1.0501 0 0 1 62.4707 103.4009)" class="st1 st2 st3">THE</text>
	<path class="st1" d="M187.7,71.3"/>
</g>
</svg>
