<svg xmlns="http://www.w3.org/2000/svg" viewBox="0 0 125.49 75.58"><defs><style>.cls-1{fill:#fff;}.cls-2{fill:#8dc63f;}</style></defs><title>Asset 3</title><g id="Layer_2" data-name="Layer 2"><g id="Front"><path class="cls-1" d="M41.17,49.76c-2.24-.91-7.7-5.94-9.61-9.16,3.36,9.19,5,27.35,4.9,34.19H46.3c-.48-14.4-3.71-21.84-5.13-25"/><polygon class="cls-1" points="0 6.41 10.75 6.41 10.75 65.03 28.43 65.03 28.43 74.8 0 74.8 0 6.41"/><path class="cls-1" d="M90.28,74.8H79.44L77.58,62.39H64.39L62.54,74.8H52.67L63.61,6.41H79.34ZM65.76,53.11H76.12L70.94,18.53Z"/><path class="cls-1" d="M125.49,49.3v9.09c0,10.94-5.47,17.19-16,17.19s-16-6.25-16-17.19V22.82c0-10.94,5.47-17.19,16-17.19s16,6.25,16,17.19v6.64H115.33V22.14c0-4.88-2.15-6.74-5.57-6.74s-5.57,1.85-5.57,6.74V59.07c0,4.88,2.15,6.64,5.57,6.64s5.57-1.76,5.57-6.64V49.3Z"/><path class="cls-2" d="M33.69,17.17C28.66,10,15.85,1,8.72,1.34c4.71,4.17,6,8.39,6.07,13.57.08,4.87,4.38,15.73,15.53,17.41-.63-5.26-4.35-13.06-6.73-17.4a32.67,32.67,0,0,1,9.69,22s5.44-12.54.41-19.75"/><path class="cls-2" d="M43.58,20.52c-7,9.54-.07,26.59-.07,26.59A44,44,0,0,1,57.25,17.82C53.9,23.59,48.66,34,47.63,41c15.06-1.9,21.19-16.38,21.46-22.93.28-7,2.12-12.6,8.59-18.06C68.1-.61,50.58,11,43.58,20.52"/></g></g></svg>