<svg xmlns="http://www.w3.org/2000/svg" viewBox="0 0 88 60"><defs><style>.cls-1{fill:#222045;}.cls-2{fill:#c9db2c;}.cls-3{fill:#fff;}.cls-4{isolation:isolate;}</style></defs><title>Asset 1</title><g id="Layer_2" data-name="Layer 2"><g id="Layer_1-2" data-name="Layer 1"><g id="Layer_3" data-name="Layer 3"><rect class="cls-1" width="88" height="60"/></g><g id="Layer_1-3" data-name="Layer 1"><path class="cls-2" d="M65.87,20.83a5.92,5.92,0,1,0,5.92,6v-.06a6,6,0,0,0-5.92-5.92ZM67,22.19a1.68,1.68,0,1,1-1.69,1.69v0A1.68,1.68,0,0,1,67,22.19ZM65.7,26.42a.38.38,0,1,1-.38.38.35.35,0,0,1,.38-.38Zm-2.4-3.35a1.68,1.68,0,1,1-1.69,1.69v0a1.7,1.7,0,0,1,1.69-1.67Zm-.25,7a1.68,1.68,0,1,1,1.69-1.69v0A1.67,1.67,0,0,1,63,30.06Zm3.39,1.48a1.68,1.68,0,1,1,1.69-1.69v0a1.72,1.72,0,0,1-1.69,1.67ZM69,28.77a1.68,1.68,0,1,1,1.69-1.69v0A1.7,1.7,0,0,1,69,28.77Z"/><polygon class="cls-3" points="17.47 29.58 17.47 20 21.77 20 23.38 26.25 24.87 20.06 29.23 20 29.26 29.58 26.35 29.58 26.37 23.85 24.47 29.58 22.22 29.58 20.4 23.13 20.4 29.58 17.47 29.58"/><path class="cls-3" d="M34.93,19.73A5.09,5.09,0,1,0,40,24.85v0a5.09,5.09,0,0,0-5.12-5.1Zm0,7.77a2.52,2.52,0,0,1-2.21-2.73A2.5,2.5,0,0,1,34.9,22a2.52,2.52,0,0,1,2.21,2.73A2.52,2.52,0,0,1,34.9,27.5Z"/><polygon class="cls-3" points="39.5 20.02 42.68 29.58 45.8 29.58 49.07 20.02 45.99 20.02 44.31 26.25 42.58 20.02 39.5 20.02"/><rect class="cls-3" x="49.7" y="21.29" width="3.06" height="8.17"/><polygon class="cls-3" points="56.91 27.5 56.91 25.65 61.19 25.65 61.19 23.52 56.91 23.52 56.91 22.17 61.51 22.17 61.51 19.98 56.91 19.98 53.9 19.98 53.9 22.17 53.9 29.58 56.19 29.58 56.91 29.58 61.93 29.58 61.93 27.5 56.91 27.5"/><g class="cls-4"><path class="cls-3" d="M17.45,37V31.08H19l1.22,2.15a17.83,17.83,0,0,1,1,2h0a22.51,22.51,0,0,1-.11-2.46V31.08h1.22V37H21l-1.26-2.27a17.35,17.35,0,0,1-1-2.08h0c0,.77,0,1.6,0,2.56v1.77H17.45Z"/><path class="cls-3" d="M24.81,31.08V37H23.48V31.08Z"/><path class="cls-3" d="M30.88,36.69a6.28,6.28,0,0,1-2,.33,3.33,3.33,0,0,1-2.4-.79,2.76,2.76,0,0,1-.82-2.15c0-2,1.43-3.06,3.37-3.06a3.83,3.83,0,0,1,1.62.29l-.27,1.06A3.12,3.12,0,0,0,29,32.13,1.92,1.92,0,0,0,29,36a2,2,0,0,0,.65-.08V34.65h-.91v-1H30.9v3.08Z"/><path class="cls-3" d="M33.26,31.08v2.25h2.19V31.08h1.33V37H35.45V34.5H33.26V37H31.93V31.08Z"/></g><g class="cls-4"><path class="cls-3" d="M39.08,32.21H37.5V31.08H42v1.12h-1.6V37H39.1V32.21Z"/></g><g class="cls-4"><path class="cls-3" d="M42.68,35.6a3.33,3.33,0,0,0,1.48.38c.61,0,.93-.25.93-.65s-.27-.58-1-.83c-1-.33-1.62-.87-1.62-1.73S43.31,31,44.71,31a3.77,3.77,0,0,1,1.5.29l-.3,1.06a2.93,2.93,0,0,0-1.22-.27c-.57,0-.86.27-.86.56s.34.54,1.1.83c1,.38,1.54.92,1.54,1.75S45.7,37,44.07,37a3.8,3.8,0,0,1-1.67-.35Z"/></g><g class="cls-4"><path class="cls-3" d="M48.23,31.83v2.94h-.67V31.83Z"/><path class="cls-3" d="M48.82,34.77V31.83h.78l.61,1.08a8.76,8.76,0,0,1,.48,1h0a11.42,11.42,0,0,1-.06-1.23v-.85h.61v2.94h-.7l-.63-1.12c-.17-.31-.36-.69-.51-1h0c0,.4,0,.81,0,1.29v.9h-.61Z"/></g><g class="cls-4"><path class="cls-3" d="M53.1,32.4h-.8v-.56h2.26v.56h-.8v2.37h-.67V32.4Z"/><path class="cls-3" d="M55.6,31.83V33h1.1V31.83h.65v2.94H56.7V33.54H55.6v1.23h-.67V31.83h.67Z"/><path class="cls-3" d="M59.69,33.54H58.6v.69h1.2v.54H57.92V31.83h1.81v.54H58.6V33h1.07v.56Z"/></g><g class="cls-4"><path class="cls-3" d="M61.15,31.88a4.77,4.77,0,0,1,.91-.06A1.56,1.56,0,0,1,63,32a.86.86,0,0,1,.32.69.9.9,0,0,1-.27.69,1.4,1.4,0,0,1-.95.31.8.8,0,0,1-.23,0v1h-.65V31.88Zm.65,1.33a.73.73,0,0,0,.23,0c.36,0,.57-.19.57-.48s-.19-.44-.53-.44l-.27,0v.87Z"/></g><g class="cls-4"><path class="cls-3" d="M64.12,34l-.21.75h-.7l.91-2.94H65l.91,2.94h-.72L64.94,34Zm.74-.5-.19-.62-.15-.56h0c0,.17-.08.4-.13.56l-.17.63Z"/><path class="cls-3" d="M66.29,31.88a5,5,0,0,1,.89-.06,1.48,1.48,0,0,1,.95.23.8.8,0,0,1,.27.63.81.81,0,0,1-.53.73v0a.75.75,0,0,1,.4.54c.08.33.19.71.23.83h-.67a3.47,3.47,0,0,1-.21-.69c-.08-.38-.21-.46-.48-.48h-.21v1.15h-.65v-2.9Zm.65,1.27h.25c.34,0,.53-.17.53-.42s-.19-.4-.48-.42a2.94,2.94,0,0,0-.3,0v.81Z"/><path class="cls-3" d="M68.88,31.83h.65v1.29h0a2.71,2.71,0,0,1,.21-.31l.67-1h.82l-1,1.25,1,1.69h-.78l-.72-1.27-.25.31v1h-.65V31.83Z"/></g><g class="cls-4"><path class="cls-3" d="M17.49,39.52l.08-.52h-.23v-.27h.27l0-.33h-.25v-.27h.3l.06-.5H18l-.06.5h.27l.08-.5h.25l-.08.5h.23v.27h-.27l0,.33h.23V39h-.3l-.06.52H18l.06-.52h-.27l-.06.52Zm.65-.79,0-.33h-.27l0,.33Z"/><path class="cls-3" d="M20.68,38.77c0-.23,0-.52,0-.81h0c-.06.25-.15.52-.21.75l-.23.77h-.34l-.21-.75A7,7,0,0,1,19.5,38h0c0,.27,0,.56,0,.81l0,.75H19l.13-2h.59l.19.65c.06.23.13.48.17.71h0l.19-.71.21-.65H21l.11,2h-.44Z"/><path class="cls-3" d="M21.48,39.52v-2H22l.4.71a4.77,4.77,0,0,1,.32.67h0c0-.25,0-.52,0-.81v-.56h.4v2h-.46l-.42-.75a4.17,4.17,0,0,1-.34-.69h0c0,.25,0,.54,0,.85v.58Z"/></g><g class="cls-4"><path class="cls-3" d="M23.48,37.56h.44v1.58h.78v.38H23.48Z"/></g><g class="cls-4"><path class="cls-3" d="M26.31,37.46V39.1a2.25,2.25,0,0,0,0,.42h-.4l0-.21h0a.47.47,0,0,1-.44.25.66.66,0,0,1-.61-.73.67.67,0,0,1,.63-.75.44.44,0,0,1,.38.17h0v-.77h.44Zm-.42,1.25v-.08a.25.25,0,0,0-.25-.21c-.21,0-.3.19-.3.4s.13.4.3.4a.25.25,0,0,0,.25-.21s0-.06,0-.1v-.19Z"/><path class="cls-3" d="M26.66,38.56a2.91,2.91,0,0,0,0-.46H27l0,.19h0a.56.56,0,0,1,.44-.23c.3,0,.51.19.51.6v.83h-.44v-.79c0-.19-.06-.31-.23-.31a.25.25,0,0,0-.23.17.15.15,0,0,0,0,.1v.81h-.44v-.92Z"/></g><g class="cls-4"><path class="cls-3" d="M30.18,38.52a.94.94,0,0,1-1,1,.91.91,0,0,1-.93-1,1,1,0,0,1,.95-1A.89.89,0,0,1,30.18,38.52Zm-1.41,0c0,.38.19.65.48.65s.46-.29.46-.67-.17-.65-.48-.65S28.77,38.17,28.77,38.54Z"/></g><g class="cls-4"><path class="cls-3" d="M30.48,38.56a2.91,2.91,0,0,0,0-.46h.38l0,.19h0a.56.56,0,0,1,.44-.23c.3,0,.51.19.51.6v.83h-.44v-.79c0-.19-.06-.31-.23-.31a.25.25,0,0,0-.23.17.15.15,0,0,0,0,.1v.81h-.44v-.92Z"/></g><g class="cls-4"><path class="cls-3" d="M32.65,37.69v.42H33v.33h-.32V39c0,.17,0,.25.17.25s.11,0,.13,0v.33a1,1,0,0,1-.3,0,.45.45,0,0,1-.34-.13.58.58,0,0,1-.13-.42v-.58H32V38.1h.19v-.31Z"/></g></g></g></g></svg>