<?xml version="1.0" encoding="UTF-8"?> <!-- Generator: Adobe Illustrator 21.1.0, SVG Export Plug-In . SVG Version: 6.00 Build 0) --> <svg xmlns="http://www.w3.org/2000/svg" xmlns:xlink="http://www.w3.org/1999/xlink" id="Layer_1" x="0px" y="0px" viewBox="0 0 218 150" style="enable-background:new 0 0 218 150;" xml:space="preserve"> <style type="text/css"> .st0{fill:#86BE40;} .st1{fill:#FFFFFF;} .st2{font-family:'Montserrat-Bold';} .st3{font-size:7.047px;} </style> <g id="Layer_1_1_"> <rect x="0" y="0" class="st0" width="218" height="150"></rect> <path class="st1" d="M36.9,74h-4.1V57.6h4.1V74z M33.4,73.3h2.8V58.2h-2.8V73.3z"></path> <path class="st1" d="M55.6,74.6l-11.9-9.3V74h-4.1v-17l11.9,9.4v-8.8h4.1V74.6z M40.3,73.3h2.8v-9.4L55,73.2v-15h-2.8v9.5 l-11.9-9.4V73.3z"></path> <path class="st1" d="M65.4,74h-4.1V61.2h-4.1v-3.6h12.6v3.6h-4.4C65.4,61.2,65.4,74,65.4,74z M62,73.3h2.8V60.5h4.4v-2.3H57.8v2.3 H62C62,60.5,62,73.3,62,73.3z"></path> <path class="st1" d="M82.4,74h-11V57.6h9.5v3.6h-5.4v2.3h6.3v3.6h-6.3v3.3h6.9L82.4,74L82.4,74z M72,73.3h9.7V71h-6.9v-4.6h6.3V64 h-6.3v-3.6h5.4v-2.3H72L72,73.3L72,73.3z"></path> <path class="st1" d="M102.6,79.2H97l-7.2-8h-1.3v3.1h-4.1V57.6h6.1c1.9,0,3.8,0.6,5.2,1.9c1.4,1.2,2.1,2.9,2.1,4.6 c0.1,1.3-0.3,2.6-1,3.8c-0.6,0.9-1.5,1.7-2.5,2.2L102.6,79.2z M97.4,78.6h3.7l-7.9-8.8l0.4-0.2c1.1-0.5,2-1.2,2.6-2.2 c0.6-1,1-2.2,0.9-3.5c0-1.6-0.7-3.1-1.9-4.1c-1.3-1.1-3-1.8-4.7-1.7h-5.5v15.4h2.8v-3.1h2.2L97.4,78.6z M87.9,68.3v-7.7h2.5 c1.1-0.1,2.2,0.4,2.9,1.1c0.7,0.7,1,1.7,1,2.6c0.1,1.1-0.4,2.2-1.2,2.9c-0.9,0.7-2.2,1.1-3.4,1H87.9z M88.6,67.7h1.1 c1,0.1,2.1-0.3,3-0.8c0.7-0.6,1-1.6,0.9-2.5c0.1-0.8-0.3-1.6-0.8-2.3c-0.6-0.6-1.5-0.9-2.5-0.9h-1.8L88.6,67.7z"></path> <path class="st1" d="M116.2,74h-4.5l-1.1-2.1h-7.7l-2.3,5.7L99,76l-1.3-1.3l9.1-17.8L116.2,74z M104.7,68.3h4l-2-3.8L104.7,68.3z"></path> <path class="st1" d="M117.6,71.8c-0.8-0.8-1.5-1.7-1.9-2.6c-1.4-3.2-0.7-6.8,1.9-9.3c0.8-0.8,1.8-1.4,2.8-1.8 c1.1-0.5,2.3-0.7,3.4-0.7c1.6,0,3.1,0.4,4.4,1.1c1.3,0.7,2.4,1.7,3.2,2.9l0.2,0.3l-3.2,2.2l-0.2-0.3c-0.5-0.7-1.2-1.3-2-1.8 c-0.7-0.4-1.5-0.6-2.3-0.6c-1.3,0-2.5,0.5-3.3,1.4c-0.9,0.9-1.4,2.1-1.4,3.4c0,1.2,0.5,2.4,1.4,3.3c0.8,0.8,2,1.3,3.3,1.3 c1.1,0,2.2-0.4,3.1-1.1c0.9-0.7,1.5-1.7,1.7-2.7l0.1-0.3h4.2v0.4c-0.5,4.3-4.4,7.6-9,7.5C121.5,74.2,119.2,73.3,117.6,71.8z"></path> <path class="st1" d="M140.7,74h-4.1V61.2h-4.1v-3.6H145v3.6h-4.4L140.7,74z"></path> <path class="st1" d="M150.8,74h-4.2V57.6h4.1L150.8,74L150.8,74z M150.1,58.3L150.1,58.3z"></path> <path class="st1" d="M158.3,73.6c-1-0.5-2-1-2.9-1.8c-0.8-0.8-1.5-1.7-1.9-2.7c-0.9-2.1-0.9-4.5,0-6.6c0.5-1,1.1-1.9,1.9-2.6 c0.8-0.8,1.8-1.4,2.8-1.8c4.6-1.8,9.8,0.3,11.7,4.6c1.4,3.2,0.6,6.8-1.9,9.2c-0.8,0.7-1.8,1.4-2.8,1.8 C163,74.4,160.5,74.4,158.3,73.6z M158.4,62.5c-1.8,1.9-1.8,4.8,0,6.7c0.9,0.9,2.1,1.3,3.4,1.3c1.3,0,2.5-0.5,3.3-1.3 c1.8-1.9,1.8-4.8,0-6.7c-1.7-1.7-4.6-1.8-6.5-0.2C158.5,62.4,158.4,62.4,158.4,62.5z"></path> <path class="st1" d="M188.7,74.6l-11.9-9.3V74h-4.1v-17l11.9,9.4v-8.8h4.1L188.7,74.6z M188,73.2l-14.7-15"></path> <path class="st1" d="M34.7,96.4c-0.8-0.8-1.5-1.7-1.9-2.6c-0.9-2.1-0.9-4.5,0-6.6c0.4-1,1.1-1.9,1.9-2.6c0.8-0.8,1.8-1.4,2.8-1.8 c1.1-0.5,2.3-0.7,3.4-0.7c1.6,0,3.1,0.4,4.4,1.1c1.3,0.7,2.4,1.7,3.2,2.9l0.2,0.3l-3.2,2.2l-0.2-0.3c-0.5-0.7-1.2-1.3-2-1.8 c-0.7-0.4-1.5-0.6-2.3-0.6c-1.3,0-2.5,0.5-3.3,1.4c-0.9,0.9-1.4,2.1-1.4,3.4c0,1.2,0.5,2.4,1.4,3.3c0.8,0.8,2,1.3,3.3,1.3 c1.1,0,2.2-0.4,3.1-1.1c0.9-0.7,1.5-1.7,1.7-2.7l0.1-0.3h4.2v0.4C49.4,95.7,45.5,99,41,99C38.6,98.9,36.3,98,34.7,96.4z"></path> <path class="st1" d="M56.7,98.2c-1-0.5-2-1-2.9-1.8c-0.8-0.8-1.5-1.7-1.9-2.7c-0.9-2.1-0.9-4.5,0-6.6c0.5-1,1.1-1.9,1.9-2.6 c0.8-0.8,1.8-1.4,2.9-1.8c4.6-1.8,9.8,0.3,11.7,4.6c1.4,3.2,0.6,6.7-1.9,9.2c-0.8,0.7-1.8,1.4-2.8,1.8 C61.4,99.1,58.9,99.1,56.7,98.2L56.7,98.2z M56.8,87.1c-1.8,1.9-1.8,4.8,0,6.7c0.9,0.9,2.1,1.3,3.4,1.3c1.3,0,2.5-0.5,3.3-1.3 c1.8-1.9,1.8-4.8,0-6.7c-1.7-1.7-4.6-1.8-6.5-0.2C57,86.9,56.9,87,56.8,87.1L56.8,87.1z"></path> <path class="st1" d="M82,98.6H71.2V82.3h4.1v12.8H82L82,98.6L82,98.6L82,98.6z M81.3,98L81.3,98z"></path> <path class="st1" d="M94.3,98.6H83.5V82.3h4.1v12.8h6.7L94.3,98.6z M93.7,98L93.7,98z"></path> <path class="st1" d="M106.8,98.6h-11V82.3h9.6v3.6H100v2.3h6.3v3.6H100v3.3h6.8V98.6z M96.5,98h9.7"></path> <path class="st1" d="M110.8,96.4c-0.8-0.8-1.5-1.7-1.9-2.6c-1.4-3.2-0.7-6.8,1.9-9.3c0.8-0.8,1.8-1.4,2.8-1.8 c1.1-0.5,2.3-0.7,3.4-0.7c1.6,0,3.1,0.4,4.4,1.1c1.3,0.7,2.4,1.7,3.2,2.9l0.2,0.3l-3.2,2.2l-0.2-0.3c-0.5-0.7-1.2-1.3-2-1.8 c-0.7-0.4-1.5-0.6-2.3-0.6c-1.3,0-2.5,0.5-3.3,1.4c-0.9,0.9-1.4,2.1-1.4,3.4c0,1.2,0.5,2.4,1.4,3.3c0.8,0.8,2,1.3,3.3,1.3 c1.1,0,2.2-0.4,3.1-1.1c0.9-0.7,1.5-1.7,1.7-2.7l0.1-0.3h4.2v0.4c-0.5,4.3-4.4,7.5-8.9,7.5C114.7,99,112.4,98,110.8,96.4z"></path> <path class="st1" d="M133.9,98.6h-4.1V85.8h-4.1v-3.6h12.6v3.6h-4.4L133.9,98.6z"></path> <path class="st1" d="M144,98.6h-4.1V82.3h4.1V98.6z"></path> <path class="st1" d="M154.3,99.2l-9.5-17h4.8l4.8,8.8l4.5-8.8h4.3L154.3,99.2z M162.1,82.8L162.1,82.8z"></path> <path class="st1" d="M174.7,98.6h-11V82.3h9.5v3.6h-5.4v2.3h6.3v3.6h-6.3v3.3h6.8L174.7,98.6L174.7,98.6z M174,98L174,98z"></path> <text transform="matrix(1.0579 0 0 1 32.6108 53.5625)" class="st1 st2 st3">THE</text> <path class="st1" d="M98,36.9"></path> </g> </svg> 