<?xml version="1.0" encoding="UTF-8"?> <!-- Generator: Adobe Illustrator 21.1.0, SVG Export Plug-In . SVG Version: 6.00 Build 0) --> <svg xmlns="http://www.w3.org/2000/svg" xmlns:xlink="http://www.w3.org/1999/xlink" id="Layer_1" x="0px" y="0px" viewBox="0 0 417.6 288" style="enable-background:new 0 0 417.6 288;" xml:space="preserve"> <style type="text/css"> .st0{fill:#01C5C4;} .st1{fill:#FFFFFF;} .st2{font-family:'Rockwell';} .st3{font-size:32.0995px;} .st4{letter-spacing:-1;} .st5{font-family:'Superclarendon-Bold';} .st6{font-size:52.2764px;} .st7{fill:none;stroke:#000000;stroke-miterlimit:10;} </style> <title>buspass</title> <g id="Layer_5"> <rect class="st0" width="417.6" height="288"></rect> </g> <g id="Layer_4"> <g id="Layer_1_1_"> <text transform="matrix(1 0 0 1 178.772 52.4523)" class="st1 st2 st3">T</text> <text transform="matrix(1 0 0 1 197.6558 52.4523)" class="st1 st2 st3">he</text> <text transform="matrix(1 0 0 1 157.5865 139.7995)" class="st1 st2 st3">P</text> <text transform="matrix(1 0 0 1 175.984 139.7995)" class="st1 st2 st3 st4">r</text> <text transform="matrix(1 0 0 1 188.0904 139.7995)" class="st1 st2 st3">oject</text> <text transform="matrix(1 0 0 1 210.4591 104.9855)" class="st1 st5 st6 st4">P</text> <text transform="matrix(1 0 0 1 249.3546 104.9855)" class="st1 st5 st6">ass</text> <text transform="matrix(1 0 0 1 82.7306 104.0685)" class="st1 st5 st6">Bus</text> </g> <g id="windows"> <path class="st7" d="M242.5,243.2"></path> <path id="bus" class="st1" d="M245.4,251.3c-5-28.6,37.6-30.7,31.4,0.1l31.7,0.1c1.3-43-1.7-71.5-6.2-81.3c0,0-0.2-4.7-8.9-4.7 l-165,0.1c0,0-9,0-13.3,11.3c-4.3,11.3-9,40.7-6.5,69.3c0.3,0.7,2.5,9.3,15.2,2.3c-0.9-28.3,38.7-23.4,31.8,2.5"></path> <circle class="st1" cx="139.8" cy="245.8" r="13.3"></circle> <circle class="st1" cx="261.5" cy="245.8" r="13.3"></circle> <rect id="window" x="247" y="172" class="st0" width="38.6" height="31.7"></rect> <rect id="window-2" x="202" y="172" class="st0" width="38.6" height="31.7"></rect> <rect id="window-3" x="159.8" y="172" class="st0" width="35.5" height="31.7"></rect> <path class="st0" d="M152.3,173.5c0,0-22.8-0.7-24.2,0s-5.4,2-7.5,8.4c-2.1,6.4-3.6,21.8-3.6,21.8v9.2H143l9.3-7.4V173.5z"></path> </g> </g> </svg> 