<?xml version="1.0" encoding="UTF-8"?> <svg xmlns="http://www.w3.org/2000/svg" viewBox="0 0 371.64 349.92"> <defs> <style>.cls-1{fill:#01c5c4;}.cls-2{font-size:35px;font-family:Rockwell, Rockwell;}.cls-2,.cls-5,.cls-8{fill:#fff;}.cls-3{letter-spacing:0.02em;}.cls-4{letter-spacing:-0.04em;}.cls-5{font-size:57px;font-family:Superclarendon-Bold, Superclarendon;font-weight:700;}.cls-6{letter-spacing:-0.03em;}.cls-7{fill:none;stroke:#000;stroke-miterlimit:10;}</style> </defs> <title>buspass</title> <g id="Layer_5" data-name="Layer 5"> <rect class="cls-1" width="349.92" height="349.92"></rect> </g> <g id="Layer_4" data-name="Layer 4"> <g id="Layer_1" data-name="Layer 1"> <text class="cls-2" transform="translate(136.55 71.47)"> <tspan class="cls-3">T</tspan> <tspan x="20.59" y="0">he</tspan> </text> <text class="cls-2" transform="translate(113.45 166.71)">P<tspan class="cls-4" x="20.06" y="0">r</tspan><tspan x="33.26" y="0">oject</tspan></text> <text class="cls-5" transform="translate(171.1 128.75)"> <tspan class="cls-6">P</tspan> <tspan x="42.41" y="0">ass </tspan> </text> <text class="cls-5" transform="translate(31.83 127.75)">Bus</text> </g> <g id="windows"> <path class="cls-7" d="M206,279.49"></path> <path id="bus" class="cls-8" d="M209.21,288.31c-5.5-31.17,41.05-33.48,34.23.09l34.59.12c1.46-46.89-1.81-78-6.8-88.66,0,0-.26-5.12-9.65-5.12l-179.91.15s-9.81,0-14.53,12.35-9.85,44.33-7.1,75.57c.28.77,2.76,10.16,16.6,2.56-1-30.81,42.19-25.5,34.7,2.78"></path> <circle class="cls-8" cx="94.01" cy="282.26" r="14.49"></circle> <circle class="cls-8" cx="226.79" cy="282.26" r="14.49"></circle> <rect id="window" class="cls-1" x="210.94" y="201.77" width="42.04" height="34.58"></rect> <rect id="window-2" data-name="window" class="cls-1" x="161.9" y="201.77" width="42.04" height="34.58"></rect> <rect id="window-3" data-name="window" class="cls-1" x="115.86" y="201.77" width="38.7" height="34.58"></rect> <path class="cls-1" d="M107.68,203.42s-24.82-.81-26.4,0-5.92,2.2-8.18,9.17-3.89,23.77-3.89,23.77v10.07H97.5l10.18-8.12Z"></path> </g> </g> </svg> 