<?xml version="1.0" encoding="UTF-8"?> <svg xmlns="http://www.w3.org/2000/svg" viewBox="0 0 349.92 349.92"> <defs> <style>.cls-1{fill:#86be40;}.cls-2,.cls-3{fill:#fff;}.cls-3{font-size:14.28px;font-family:Montserrat-Bold, Montserrat;font-weight:700;}</style> </defs> <title>interaction</title> <g id="Layer_1" data-name="Layer 1"> <rect class="cls-1" width="349.92" height="349.92"></rect> <path class="cls-2" d="M37,170.14H29.11v-33.2H37Zm-6.64-1.29h5.35V138.23H30.4Z"></path> <path class="cls-2" d="M72.89,171.43,50.19,152.53v17.61H42.26V135.57L65,154.63V136.94h7.93Zm-29.35-2.57H48.9V149.79l22.71,18.89V138.23H66.25v19.19l-22.7-19.06Z"></path> <path class="cls-2" d="M91.7,170.14H83.78V144.22H75.89v-7.28h24.2v7.28H91.7Zm-6.64-1.29h5.36V142.94h8.4v-4.71H77.18v4.71h7.88Z"></path> <path class="cls-2" d="M124.17,170.14H103.1v-33.2h18.25v7.28H111v4.67h12v7.24H111v6.73h13.15Zm-19.79-1.29h18.51v-4.71H109.74v-9.3h12v-4.67h-12v-7.24h10.32v-4.71H104.38Z"></path> <path class="cls-2" d="M162.82,180.86H152.24l-13.8-16.24H136v6.24h-7.93V136.94h11.74a14.26,14.26,0,0,1,9.9,3.86,12.86,12.86,0,0,1,4,9.34,14.19,14.19,0,0,1-2,7.71,12.65,12.65,0,0,1-4.76,4.5Zm-10-1.29h7.07l-15.09-17.66.81-.39a11.33,11.33,0,0,0,5-4.37,13.29,13.29,0,0,0,1.8-7,11.53,11.53,0,0,0-3.6-8.4,12.81,12.81,0,0,0-9-3.51H129.36v31.34h5.35v-6.24H139Zm-18.09-21V142.94h4.67a7.35,7.35,0,0,1,5.61,2.27,8,8,0,0,1,1.88,5.44,7.62,7.62,0,0,1-2.27,5.91,9.5,9.5,0,0,1-6.51,2.06Zm1.29-1.29h2.1a8.19,8.19,0,0,0,5.66-1.71,6.34,6.34,0,0,0,1.84-5,6.74,6.74,0,0,0-1.54-4.58,6.06,6.06,0,0,0-4.67-1.84H136Z"></path> <path class="cls-2" d="M189,170.14h-8.7l-2.1-4.24H163.5L159,177.44l-3-3.28-2.48-2.55,17.54-36ZM171,138.4m-4,20.18h7.63l-3.86-7.84Z"></path> <path class="cls-2" d="M191.52,165.69a17.32,17.32,0,0,1-3.64-5.44,17.36,17.36,0,0,1,3.6-18.81,17.23,17.23,0,0,1,5.44-3.68,16.75,16.75,0,0,1,6.64-1.37,17.34,17.34,0,0,1,8.53,2.23,17,17,0,0,1,6.13,5.83l.3.51-6.21,4.41-.34-.56a11.8,11.8,0,0,0-3.86-3.6,8.85,8.85,0,0,0-4.5-1.2,8.6,8.6,0,0,0-6.34,2.78,9.9,9.9,0,0,0-2.61,6.77,9.79,9.79,0,0,0,2.61,6.73A8.72,8.72,0,0,0,203.6,163a9.17,9.17,0,0,0,5.91-2.19,9.64,9.64,0,0,0,3.17-5.57l.09-.51h8l0,.73A17.26,17.26,0,0,1,203.6,170.7,17,17,0,0,1,191.52,165.69Z"></path> <path class="cls-2" d="M235.82,170.14h-7.93V144.22H220v-7.28h24.2v7.28h-8.4Z"></path> <path class="cls-2" d="M255.14,170.14h-7.93v-33.2h7.93Zm-1.29-31.92h0Z"></path> <path class="cls-2" d="M269.54,169.33a17.53,17.53,0,0,1-5.48-3.64,16.93,16.93,0,0,1-3.68-5.48,17.48,17.48,0,0,1,0-13.37,17.22,17.22,0,0,1,3.68-5.44,16.64,16.64,0,0,1,5.44-3.64,17.18,17.18,0,0,1,18.85,27.93,17.84,17.84,0,0,1-5.44,3.64,17,17,0,0,1-13.37,0Zm.21-22.53a10,10,0,0,0,0,13.49,8.94,8.94,0,0,0,6.47,2.74,8.75,8.75,0,0,0,6.38-2.74,9.9,9.9,0,0,0,0-13.49,8.81,8.81,0,0,0-12.85,0Z"></path> <path class="cls-2" d="M327.88,171.43l-22.71-18.89v17.61h-7.93V135.57L320,154.63V136.94h7.93Zm-1.29-2.74-28.06-30.33"></path> <path class="cls-2" d="M32.75,215.67a17.33,17.33,0,0,1-3.64-5.44,17.48,17.48,0,0,1,0-13.37,16.75,16.75,0,0,1,3.6-5.44,17.22,17.22,0,0,1,5.44-3.68,16.74,16.74,0,0,1,6.64-1.37,17.34,17.34,0,0,1,8.53,2.23,17,17,0,0,1,6.13,5.83l.3.51-6.21,4.41-.34-.56a11.8,11.8,0,0,0-3.86-3.6,8.85,8.85,0,0,0-4.5-1.2,8.6,8.6,0,0,0-6.34,2.78,9.9,9.9,0,0,0-2.61,6.77,9.79,9.79,0,0,0,2.61,6.73A8.72,8.72,0,0,0,44.83,213a9.17,9.17,0,0,0,5.91-2.19,9.64,9.64,0,0,0,3.17-5.57l.09-.51h8l0,.73a17.26,17.26,0,0,1-17.09,15.21A17,17,0,0,1,32.75,215.67Z"></path> <path class="cls-2" d="M75,219.31a17.52,17.52,0,0,1-5.48-3.64,16.93,16.93,0,0,1-3.68-5.48,17.48,17.48,0,0,1,0-13.37,17.23,17.23,0,0,1,3.68-5.44A16.63,16.63,0,0,1,75,187.74,17.18,17.18,0,0,1,93.8,215.67a17.84,17.84,0,0,1-5.44,3.64,17,17,0,0,1-13.37,0Zm.21-22.53a10,10,0,0,0,0,13.49A8.94,8.94,0,0,0,81.68,213a8.75,8.75,0,0,0,6.38-2.74,9.9,9.9,0,0,0,0-13.49,8.81,8.81,0,0,0-12.85,0Z"></path> <path class="cls-2" d="M123.49,220.12H102.71v-33.2h7.93v25.92h12.85Zm-1.29-1.29v0Z"></path> <path class="cls-2" d="M147.09,220.12H126.32v-33.2h7.93v25.92h12.85Zm-1.29-1.29v0Z"></path> <path class="cls-2" d="M171,220.12H149.92v-33.2h18.25v7.28H157.85v4.67h12v7.24h-12v6.73H171Zm-19.79-1.29h18.51"></path> <path class="cls-2" d="M178.54,215.67a17.32,17.32,0,0,1-3.64-5.44,17.36,17.36,0,0,1,3.6-18.81,17.22,17.22,0,0,1,5.44-3.68,16.74,16.74,0,0,1,6.64-1.37,17.34,17.34,0,0,1,8.53,2.23,17,17,0,0,1,6.13,5.83l.3.51-6.21,4.41-.34-.56a11.8,11.8,0,0,0-3.86-3.6,8.85,8.85,0,0,0-4.5-1.2,8.6,8.6,0,0,0-6.34,2.78,9.9,9.9,0,0,0-2.61,6.77,9.79,9.79,0,0,0,2.61,6.73,8.72,8.72,0,0,0,6.34,2.74,9.17,9.17,0,0,0,5.91-2.19,9.64,9.64,0,0,0,3.17-5.57l.09-.51h8l0,.73a17.26,17.26,0,0,1-17.09,15.21A17,17,0,0,1,178.54,215.67Z"></path> <path class="cls-2" d="M222.84,220.12h-7.93V194.2H207v-7.28h24.2v7.28h-8.4Zm-1.29-1.29"></path> <path class="cls-2" d="M242.16,220.12h-7.93v-33.2h7.93Zm-6.64-1.29"></path> <path class="cls-2" d="M261.82,221.41,243.7,186.92h9.08L262,204.83l8.74-17.91h8.31ZM277,188.21h0Z"></path> <path class="cls-2" d="M301.07,220.12H280v-33.2h18.25v7.28H287.92v4.67h12v7.24h-12v6.73h13.15Zm-1.29-1.29v0Z"></path> <text class="cls-3" transform="translate(28.79 128.79)">THE</text> <path class="cls-2" d="M154.05,95.09"></path> </g> </svg> 