<?xml version="1.0" encoding="UTF-8"?> <svg xmlns="http://www.w3.org/2000/svg" viewBox="0 0 76.35 47.72"> <defs> <style>.cls-1{fill:#fff;}.cls-2{fill:#8dc63f;}.cls-3,.cls-4{fill:none;}.cls-3{stroke:#8dc63f;stroke-miterlimit:10;stroke-width:0.38px;}</style> </defs> <title>Asset 9</title> <g id="Layer_2" data-name="Layer 2"> <g id="Front_copy" data-name="Front copy"> <path class="cls-1" d="M27.6,24.6A14.71,14.71,0,0,1,23,20.35c1.6,4.27,2.37,12.7,2.33,15.87H30c-.23-6.68-1.77-10.14-2.44-11.62"></path> <polygon class="cls-1" points="8 4.47 13.12 4.47 13.12 31.68 21.53 31.68 21.53 36.22 8 36.22 8 4.47"></polygon> <path class="cls-1" d="M51,36.22H45.81l-.88-5.76H38.65l-.88,5.76h-4.7L38.27,4.47h7.49ZM39.3,26.15h4.93L41.76,10.1Z"></path> <path class="cls-1" d="M67.72,24.38V28.6c0,5.08-2.6,8-7.62,8s-7.62-2.9-7.62-8V12.09c0-5.08,2.6-8,7.62-8s7.62,2.9,7.62,8v3.08H62.88v-3.4c0-2.27-1-3.13-2.65-3.13s-2.65.86-2.65,3.13V28.92c0,2.27,1,3.08,2.65,3.08s2.65-.82,2.65-3.08V24.38Z"></path> <path class="cls-2" d="M24,9.47C21.64,6.12,15.55,2,12.15,2.12A7.68,7.68,0,0,1,15,8.42a8.92,8.92,0,0,0,7.39,8.08c-.3-2.44-2.07-6.06-3.2-8.08a15,15,0,0,1,4.61,10.21s2.59-5.82.2-9.17"></path> <path class="cls-2" d="M28.74,11c-3.33,4.43,0,12.34,0,12.34a20.16,20.16,0,0,1,6.54-13.6c-1.59,2.68-4.09,7.49-4.58,10.77,7.17-.88,10.09-7.6,10.21-10.65A10.34,10.34,0,0,1,45,1.51c-4.56-.3-12.9,5.08-16.23,9.51"></path> <line class="cls-3" x1="8" y1="39.51" x2="67.72" y2="39.51"></line> <rect class="cls-4" width="76.35" height="47.72"></rect> <path class="cls-2" d="M8.31,45.68V43.07a0,0,0,0,1,0,0h.16a0,0,0,0,1,0,0v2.4h.9a0,0,0,0,1,0,0v.15a0,0,0,0,1,0,0Z"></path> <path class="cls-2" d="M11.55,43.84v1a.78.78,0,1,1-1.55,0v-1a.78.78,0,1,1,1.55,0Zm-1.31,0v1c0,.42.21.61.54.61s.54-.19.54-.61v-1c0-.42-.21-.61-.54-.61S10.24,43.41,10.24,43.84Z"></path> <path class="cls-2" d="M13.71,43.07a0,0,0,0,1,0,0h.16a0,0,0,0,1,0,0v2.58a0,0,0,0,1,0,0h-.25a.07.07,0,0,1-.05,0l-1-2.34,0,2.34a0,0,0,0,1,0,0H12.4a0,0,0,0,1,0,0V43.07a0,0,0,0,1,0,0h.25a.07.07,0,0,1,.05,0l1,2.34Z"></path> <path class="cls-2" d="M15.54,43c.56,0,.77.37.77.83v1c0,.46-.21.83-.77.83H14.8V43Zm-.51.22v2.21h.51c.33,0,.53-.19.53-.61v-1c0-.42-.2-.61-.53-.61Z"></path> <path class="cls-2" d="M18.63,43.84v1a.78.78,0,1,1-1.55,0v-1a.78.78,0,1,1,1.55,0Zm-1.31,0v1c0,.42.21.61.54.61s.54-.19.54-.61v-1c0-.42-.21-.61-.54-.61S17.33,43.41,17.33,43.84Z"></path> <path class="cls-2" d="M20.79,43.07a0,0,0,0,1,0,0H21a0,0,0,0,1,0,0v2.58a0,0,0,0,1,0,0h-.25a.07.07,0,0,1-.05,0l-1-2.34,0,2.34a0,0,0,0,1,0,0h-.16a0,0,0,0,1,0,0V43.07a0,0,0,0,1,0,0h.25a.07.07,0,0,1,.05,0l1,2.34Z"></path> <path class="cls-2" d="M22.81,43.07s0,0,0,0H23s0,0,0,0l.63,1.55h0l.56-1.55s0,0,0,0h.19s0,0,0,0l-1,2.58s0,0,0,0h-.18s0,0,0,0l.29-.78h0s0,0,0,0Z"></path> <path class="cls-2" d="M26.65,43.84v1a.78.78,0,1,1-1.55,0v-1a.78.78,0,1,1,1.55,0Zm-1.31,0v1c0,.42.21.61.54.61s.54-.19.54-.61v-1c0-.42-.21-.61-.54-.61S25.35,43.41,25.35,43.84Z"></path> <path class="cls-2" d="M27.41,44.74V43.07a0,0,0,0,1,0,0h.16a0,0,0,0,1,0,0v1.68c0,.51.2.74.53.74s.53-.24.53-.74V43.07a0,0,0,0,1,0,0h.16a0,0,0,0,1,0,0v1.68c0,.52-.21,1-.77,1S27.41,45.26,27.41,44.74Z"></path> <path class="cls-2" d="M30.48,43.25v2.4a0,0,0,0,1,0,0h-.16a0,0,0,0,1,0,0v-2.4h-.62a0,0,0,0,1,0,0v-.15a0,0,0,0,1,0,0h1.48a0,0,0,0,1,0,0v.15a0,0,0,0,1,0,0Z"></path> <path class="cls-2" d="M32.08,45.64a0,0,0,0,1,0,0h-.16a0,0,0,0,1,0,0V43.07a0,0,0,0,1,0,0H32a0,0,0,0,1,0,0V44.2h1.07V43.07a0,0,0,0,1,0,0h.16a0,0,0,0,1,0,0v2.58a0,0,0,0,1,0,0h-.16a0,0,0,0,1,0,0V44.42H32.08Z"></path> <path class="cls-2" d="M36.3,43a.05.05,0,0,1,0,0l.74,2.59s0,0,0,0h-.19s0,0,0,0l-.28-1H35.7l-.29,1s0,0,0,0h-.19s0,0,0,0l.75-2.59a0,0,0,0,1,0,0Zm-.54,1.43h.74l-.33-1.21H36.1Z"></path> <path class="cls-2" d="M38.56,43c.56,0,.77.37.77.83v1c0,.46-.21.83-.77.83h-.75V43Zm-.51.22v2.21h.51c.33,0,.53-.19.53-.61v-1c0-.42-.2-.61-.53-.61Z"></path> <path class="cls-2" d="M41.43,43.07s0,0,0,0h.19a0,0,0,0,1,0,0L41,45.64a.05.05,0,0,1,0,0h-.35a0,0,0,0,1,0,0l-.66-2.58a0,0,0,0,1,0,0h.17s0,0,0,0l.62,2.42h0Z"></path> <path class="cls-2" d="M42.63,45.64a0,0,0,0,1,0,0h-.16a0,0,0,0,1,0,0V43.07a0,0,0,0,1,0,0h.16a0,0,0,0,1,0,0Z"></path> <path class="cls-2" d="M44.54,44.41a.64.64,0,0,1,.35.58.7.7,0,0,1-.78.72.72.72,0,0,1-.77-.74,0,0,0,0,1,0,0h.16a0,0,0,0,1,0,0,.48.48,0,0,0,.53.52.49.49,0,0,0,.54-.5.47.47,0,0,0-.3-.43l-.59-.3a.64.64,0,0,1-.38-.63.66.66,0,0,1,.73-.64.68.68,0,0,1,.75.61,0,0,0,0,1,0,0l-.15,0a0,0,0,0,1-.05,0,.46.46,0,0,0-.52-.44c-.38,0-.5.23-.5.42a.4.4,0,0,0,.21.39Z"></path> <path class="cls-2" d="M47.12,43.84v1a.78.78,0,1,1-1.55,0v-1a.78.78,0,1,1,1.55,0Zm-1.31,0v1c0,.42.21.61.54.61s.54-.19.54-.61v-1c0-.42-.21-.61-.54-.61S45.81,43.41,45.81,43.84Z"></path> <path class="cls-2" d="M48.17,45.64a0,0,0,0,1,0,0H48a0,0,0,0,1,0,0V43h.55c.64,0,.87.32.87.72v.08a.66.66,0,0,1-.51.72l.35.69c.09.14.17.24.28.24h0a0,0,0,0,1,0,0v.13s0,0,0,0h-.06c-.21,0-.33-.11-.49-.39l-.35-.71h-.43Zm0-1.28h.35c.38,0,.59-.11.59-.53v-.08c0-.35-.21-.5-.61-.5h-.33Z"></path> <path class="cls-2" d="M49.93,43.07s0,0,0,0h.19s0,0,0,0l.63,1.55h0l.56-1.55s0,0,0,0h.19s0,0,0,0l-1,2.58s0,0,0,0h-.18s0,0,0,0l.29-.78h0s0,0,0,0Z"></path> <path class="cls-2" d="M54.91,43.66l-.15,0a0,0,0,0,1-.05,0,.47.47,0,0,0-.52-.45c-.37,0-.54.19-.54.61v1c0,.43.17.61.54.61s.53-.19.53-.61a0,0,0,0,1,0,0h.16a0,0,0,0,1,0,0c0,.46-.21.83-.77.83a.74.74,0,0,1-.78-.83v-1a.75.75,0,0,1,.78-.83.68.68,0,0,1,.75.61A0,0,0,0,1,54.91,43.66Z"></path> <path class="cls-2" d="M57.22,43.84v1a.78.78,0,1,1-1.55,0v-1a.78.78,0,1,1,1.55,0Zm-1.31,0v1c0,.42.21.61.54.61s.54-.19.54-.61v-1c0-.42-.21-.61-.54-.61S55.91,43.41,55.91,43.84Z"></path> <path class="cls-2" d="M58,44.74V43.07a0,0,0,0,1,0,0h.16a0,0,0,0,1,0,0v1.68c0,.51.2.74.53.74s.53-.24.53-.74V43.07a0,0,0,0,1,0,0h.16a0,0,0,0,1,0,0v1.68c0,.52-.21,1-.77,1S58,45.26,58,44.74Z"></path> <path class="cls-2" d="M61.65,43.07a0,0,0,0,1,0,0h.16a0,0,0,0,1,0,0v2.58a0,0,0,0,1,0,0H61.6a.07.07,0,0,1-.05,0l-1-2.34,0,2.34a0,0,0,0,1,0,0h-.16a0,0,0,0,1,0,0V43.07a0,0,0,0,1,0,0h.25a.06.06,0,0,1,.05,0l1,2.34Z"></path> <path class="cls-2" d="M64.2,43.66l-.15,0a0,0,0,0,1-.05,0,.47.47,0,0,0-.52-.45c-.37,0-.54.19-.54.61v1c0,.43.17.61.54.61s.53-.19.53-.61a0,0,0,0,1,0,0h.16a0,0,0,0,1,0,0c0,.46-.21.83-.77.83a.74.74,0,0,1-.78-.83v-1a.75.75,0,0,1,.78-.83.68.68,0,0,1,.75.61A0,0,0,0,1,64.2,43.66Z"></path> <path class="cls-2" d="M65.24,45.64a0,0,0,0,1,0,0H65a0,0,0,0,1,0,0V43.07a0,0,0,0,1,0,0h.16a0,0,0,0,1,0,0Z"></path> <path class="cls-2" d="M66.1,45.68V43.07a0,0,0,0,1,0,0h.16a0,0,0,0,1,0,0v2.4h.9a0,0,0,0,1,0,0v.15a0,0,0,0,1,0,0Z"></path> <text></text> </g> </g> </svg> 