<?xml version="1.0" encoding="UTF-8"?> <svg xmlns="http://www.w3.org/2000/svg" viewBox="0 0 125.49 95.23"> <defs> <style>.cls-1{fill:#fff;}.cls-2{fill:#8dc63f;}.cls-3{fill:none;stroke:#8dc63f;stroke-miterlimit:10;stroke-width:0.38px;}</style> </defs> <title>Asset 2</title> <g id="Layer_2" data-name="Layer 2"> <g id="Front"> <path class="cls-1" d="M41.17,49.76c-2.24-.91-7.7-5.94-9.61-9.16,3.36,9.19,5,27.35,4.9,34.19H46.3c-.48-14.4-3.71-21.84-5.13-25"></path> <polygon class="cls-1" points="0 6.41 10.75 6.41 10.75 65.03 28.43 65.03 28.43 74.8 0 74.8 0 6.41"></polygon> <path class="cls-1" d="M90.28,74.8H79.44L77.58,62.39H64.39L62.54,74.8H52.67L63.61,6.41H79.34ZM65.76,53.11H76.12L70.94,18.53Z"></path> <path class="cls-1" d="M125.49,49.3v9.09c0,10.94-5.47,17.19-16,17.19s-16-6.25-16-17.19V22.82c0-10.94,5.47-17.19,16-17.19s16,6.25,16,17.19v6.64H115.33V22.14c0-4.88-2.15-6.74-5.57-6.74s-5.57,1.85-5.57,6.74V59.07c0,4.88,2.15,6.64,5.57,6.64s5.57-1.76,5.57-6.64V49.3Z"></path> <path class="cls-2" d="M33.69,17.17C28.66,10,15.85,1,8.72,1.34c4.71,4.17,6,8.39,6.07,13.57.08,4.87,4.38,15.73,15.53,17.41-.63-5.26-4.35-13.06-6.73-17.4a32.67,32.67,0,0,1,9.69,22s5.44-12.54.41-19.75"></path> <path class="cls-2" d="M43.58,20.52c-7,9.54-.07,26.59-.07,26.59A44,44,0,0,1,57.25,17.82C53.9,23.59,48.66,34,47.63,41c15.06-1.9,21.19-16.38,21.46-22.93.28-7,2.12-12.6,8.59-18.06C68.1-.61,50.58,11,43.58,20.52"></path> <line class="cls-3" y1="81.89" x2="125.49" y2="81.89"></line> <path class="cls-2" d="M.65,95.18V89.54a.08.08,0,0,1,.07-.08h.34a.08.08,0,0,1,.08.08V94.7H3a.07.07,0,0,1,.08.07v.32a.08.08,0,0,1-.08.08Z"></path> <path class="cls-2" d="M7.44,91.2v2.25c0,1-.46,1.79-1.62,1.79s-1.62-.79-1.62-1.79V91.2c0-1,.46-1.8,1.62-1.8S7.44,90.2,7.44,91.2Zm-2.75,0v2.25c0,.91.43,1.31,1.13,1.31s1.13-.4,1.13-1.31V91.2c0-.91-.43-1.32-1.13-1.32S4.69,90.29,4.69,91.2Z"></path> <path class="cls-2" d="M12,89.54a.08.08,0,0,1,.08-.08h.33a.08.08,0,0,1,.08.08v5.55a.08.08,0,0,1-.08.08h-.52a.14.14,0,0,1-.11-.08l-2.14-5,0,5a.08.08,0,0,1-.08.08H9.25a.08.08,0,0,1-.08-.08V89.54a.08.08,0,0,1,.08-.08h.52a.14.14,0,0,1,.11.08l2.14,5Z"></path> <path class="cls-2" d="M15.84,89.46c1.17,0,1.61.79,1.61,1.79v2.14c0,1-.44,1.79-1.61,1.79H14.27V89.46Zm-1.07.47V94.7h1.07c.69,0,1.11-.4,1.11-1.31V91.25c0-.91-.42-1.31-1.11-1.31Z"></path> <path class="cls-2" d="M22.34,91.2v2.25c0,1-.46,1.79-1.62,1.79s-1.62-.79-1.62-1.79V91.2c0-1,.46-1.8,1.62-1.8S22.34,90.2,22.34,91.2Zm-2.75,0v2.25c0,.91.43,1.31,1.13,1.31s1.13-.4,1.13-1.31V91.2c0-.91-.43-1.32-1.13-1.32S19.59,90.29,19.59,91.2Z"></path> <path class="cls-2" d="M26.87,89.54a.08.08,0,0,1,.08-.08h.33a.08.08,0,0,1,.08.08v5.55a.08.08,0,0,1-.08.08h-.52a.14.14,0,0,1-.11-.08l-2.14-5,0,5a.08.08,0,0,1-.08.08h-.33a.08.08,0,0,1-.08-.08V89.54a.08.08,0,0,1,.08-.08h.52a.14.14,0,0,1,.11.08l2.14,5Z"></path> <path class="cls-2" d="M31.11,89.54c0-.07,0-.08,0-.08h.39s.07,0,.09.08L33,92.87H33l1.18-3.33c0-.08.06-.08.09-.08h.39s.07,0,0,.08l-2,5.55c0,.08-.07.08-.09.08h-.38s-.07,0,0-.08l.6-1.67h-.1s-.06,0-.09-.08Z"></path> <path class="cls-2" d="M39.19,91.2v2.25c0,1-.46,1.79-1.62,1.79s-1.62-.79-1.62-1.79V91.2c0-1,.46-1.8,1.62-1.8S39.19,90.2,39.19,91.2Zm-2.75,0v2.25c0,.91.43,1.31,1.13,1.31s1.13-.4,1.13-1.31V91.2c0-.91-.43-1.32-1.13-1.32S36.44,90.29,36.44,91.2Z"></path> <path class="cls-2" d="M40.78,93.16V89.54a.08.08,0,0,1,.08-.08h.34a.08.08,0,0,1,.07.08v3.62c0,1.09.42,1.6,1.11,1.6s1.11-.51,1.11-1.6V89.54a.08.08,0,0,1,.07-.08h.34a.08.08,0,0,1,.08.08v3.62c0,1.11-.44,2.07-1.61,2.07S40.78,94.27,40.78,93.16Z"></path> <path class="cls-2" d="M47.24,89.93v5.16a.08.08,0,0,1-.07.08h-.34a.08.08,0,0,1-.08-.08V89.93H45.44a.07.07,0,0,1-.08-.07v-.32a.08.08,0,0,1,.08-.08h3.11a.08.08,0,0,1,.08.07v.32a.08.08,0,0,1-.08.08Z"></path> <path class="cls-2" d="M50.6,95.09a.07.07,0,0,1-.07.08h-.34a.08.08,0,0,1-.08-.08V89.54a.08.08,0,0,1,.07-.08h.34a.08.08,0,0,1,.08.08V92h2.25V89.54a.07.07,0,0,1,.07-.08h.34a.08.08,0,0,1,.08.08v5.55a.08.08,0,0,1-.07.08h-.34a.08.08,0,0,1-.08-.08V92.45H50.6Z"></path> <path class="cls-2" d="M59.47,89.46a.11.11,0,0,1,.1.08l1.55,5.58c0,.06,0,.06,0,.06h-.4s-.06,0-.07-.08L60,93h-1.8l-.6,2.07c0,.06,0,.08-.07.08h-.4s-.06,0,0-.06l1.58-5.58a.1.1,0,0,1,.09-.08Zm-1.13,3.09h1.55l-.69-2.61h-.15Z"></path> <path class="cls-2" d="M64.21,89.46c1.17,0,1.61.79,1.61,1.79v2.14c0,1-.44,1.79-1.61,1.79H62.64V89.46Zm-1.07.47V94.7h1.07c.69,0,1.11-.4,1.11-1.31V91.25c0-.91-.42-1.31-1.11-1.31Z"></path> <path class="cls-2" d="M70.24,89.54c0-.08.07-.08.09-.08h.4a.06.06,0,0,1,.06.08L69.4,95.09a.11.11,0,0,1-.1.08h-.73a.1.1,0,0,1-.09-.08l-1.4-5.55a.06.06,0,0,1,.06-.08h.37s.07,0,.09.08l1.31,5.21H69Z"></path> <path class="cls-2" d="M72.77,95.09a.08.08,0,0,1-.07.08h-.34a.08.08,0,0,1-.08-.08V89.54a.07.07,0,0,1,.07-.08h.34a.08.08,0,0,1,.08.08Z"></path> <path class="cls-2" d="M76.77,92.43a1.38,1.38,0,0,1,.74,1.26,1.49,1.49,0,0,1-1.63,1.54,1.52,1.52,0,0,1-1.61-1.6.08.08,0,0,1,.08-.08h.34a.07.07,0,0,1,.07.08,1,1,0,0,0,1.11,1.13A1.05,1.05,0,0,0,77,93.69a1,1,0,0,0-.63-.93l-1.25-.64a1.44,1.44,0,0,1,.74-2.72,1.43,1.43,0,0,1,1.57,1.31.08.08,0,0,1,0,.11l-.32.08a.09.09,0,0,1-.11-.06,1,1,0,0,0-1.08-.95c-.79,0-1,.49-1,.9a.87.87,0,0,0,.45.85Z"></path> <path class="cls-2" d="M82.19,91.2v2.25c0,1-.46,1.79-1.62,1.79s-1.62-.79-1.62-1.79V91.2c0-1,.46-1.8,1.63-1.8S82.19,90.2,82.19,91.2Zm-2.75,0v2.25c0,.91.43,1.31,1.13,1.31s1.13-.4,1.13-1.31V91.2c0-.91-.43-1.32-1.13-1.32S79.44,90.29,79.44,91.2Z"></path> <path class="cls-2" d="M84.41,95.09a.07.07,0,0,1-.07.08H84a.08.08,0,0,1-.08-.08V89.46h1.15c1.35,0,1.82.69,1.82,1.54v.17a1.42,1.42,0,0,1-1.06,1.56l.73,1.48c.18.31.36.51.6.51h.08a.08.08,0,0,1,.08.08v.28s0,.09-.08.09H87.1c-.44,0-.69-.25-1-.84l-.74-1.54h-.91Zm0-2.77h.73c.8,0,1.25-.24,1.25-1.15V91c0-.75-.45-1.07-1.28-1.07h-.69Z"></path> <path class="cls-2" d="M88.11,89.54c0-.07,0-.08,0-.08h.39s.07,0,.09.08L90,92.87H90l1.18-3.33c0-.08.07-.08.09-.08h.39s.07,0,0,.08l-2,5.55c0,.08-.07.08-.09.08h-.38s-.07,0,0-.08l.6-1.67h-.1s-.06,0-.09-.08Z"></path> <path class="cls-2" d="M98.56,90.83l-.32.08a.08.08,0,0,1-.11-.06,1,1,0,0,0-1.09-1c-.78,0-1.13.4-1.13,1.32v2.25c0,.92.36,1.31,1.13,1.31s1.11-.4,1.11-1.31a.07.07,0,0,1,.07-.08h.34a.08.08,0,0,1,.08.08c0,1-.44,1.79-1.61,1.79a1.58,1.58,0,0,1-1.63-1.79V91.2A1.59,1.59,0,0,1,97,89.4a1.44,1.44,0,0,1,1.57,1.32A.09.09,0,0,1,98.56,90.83Z"></path> <path class="cls-2" d="M103.42,91.2v2.25c0,1-.46,1.79-1.62,1.79s-1.62-.79-1.62-1.79V91.2c0-1,.46-1.8,1.63-1.8S103.42,90.2,103.42,91.2Zm-2.75,0v2.25c0,.91.43,1.31,1.13,1.31s1.13-.4,1.13-1.31V91.2c0-.91-.43-1.32-1.13-1.32S100.67,90.29,100.67,91.2Z"></path> <path class="cls-2" d="M105,93.16V89.54a.08.08,0,0,1,.08-.08h.34a.07.07,0,0,1,.07.08v3.62c0,1.09.42,1.6,1.11,1.6s1.11-.51,1.11-1.6V89.54a.07.07,0,0,1,.07-.08h.34a.08.08,0,0,1,.08.08v3.62c0,1.11-.44,2.07-1.61,2.07S105,94.27,105,93.16Z"></path> <path class="cls-2" d="M112.73,89.54a.08.08,0,0,1,.08-.08h.33a.08.08,0,0,1,.08.08v5.55a.08.08,0,0,1-.08.08h-.52a.14.14,0,0,1-.11-.08l-2.14-5,0,5a.08.08,0,0,1-.08.08H110a.08.08,0,0,1-.08-.08V89.54a.08.08,0,0,1,.08-.08h.52a.14.14,0,0,1,.11.08l2.14,5Z"></path> <path class="cls-2" d="M118.09,90.83l-.32.08a.08.08,0,0,1-.11-.06,1,1,0,0,0-1.09-1c-.78,0-1.13.4-1.13,1.32v2.25c0,.92.36,1.31,1.13,1.31s1.11-.4,1.11-1.31a.07.07,0,0,1,.07-.08h.34a.08.08,0,0,1,.08.08c0,1-.44,1.79-1.61,1.79a1.58,1.58,0,0,1-1.63-1.79V91.2a1.59,1.59,0,0,1,1.63-1.8,1.44,1.44,0,0,1,1.57,1.32A.09.09,0,0,1,118.09,90.83Z"></path> <path class="cls-2" d="M120.28,95.09a.08.08,0,0,1-.07.08h-.34a.08.08,0,0,1-.08-.08V89.54a.07.07,0,0,1,.07-.08h.34a.08.08,0,0,1,.08.08Z"></path> <path class="cls-2" d="M122.08,95.18V89.54a.07.07,0,0,1,.07-.08h.34a.08.08,0,0,1,.08.08V94.7h1.89a.07.07,0,0,1,.08.07v.32a.08.08,0,0,1-.08.08Z"></path> </g> </g> </svg> 