<?xml version="1.0" encoding="UTF-8"?> <!-- Generator: Adobe Illustrator 21.1.0, SVG Export Plug-In . SVG Version: 6.00 Build 0) --> <svg xmlns="http://www.w3.org/2000/svg" xmlns:xlink="http://www.w3.org/1999/xlink" id="Layer_1" x="0px" y="0px" viewBox="0 0 417.5 350" style="enable-background:new 0 0 417.5 350;" xml:space="preserve"> <style type="text/css"> .st0{fill:#222045;} .st1{fill:#C9DB2C;} .st2{fill:#FFFFFF;} .st3{font-family:'MyriadPro-Bold';} .st4{font-size:52.652px;} .st5{font-size:26.3318px;} .st6{letter-spacing:-1;} .st7{font-size:17.5468px;} </style> <title>movieNight</title> <g id="Layer_3"> <rect class="st0" width="417.5" height="350"></rect> </g> <g id="Layer_1_1_"> <path class="st1" d="M338.3,126.2c-19.7-0.2-35.9,15.6-36.1,35.3c-0.2,19.7,15.6,35.9,35.3,36.1s35.9-15.6,36.1-35.3 c0-0.1,0-0.3,0-0.4C373.7,142.3,357.9,126.3,338.3,126.2C338.3,126.2,338.3,126.2,338.3,126.2z M345,134.3 c5.6-0.1,10.2,4.4,10.2,10c0.1,5.6-4.4,10.2-10,10.2c-5.6,0.1-10.2-4.4-10.2-10c0,0,0-0.1,0-0.1C335,138.9,339.4,134.4,345,134.3 C345,134.3,345,134.3,345,134.3L345,134.3z M337.3,159.8c1.3,0,2.3,1,2.3,2.3c0,1.3-1,2.3-2.3,2.3s-2.3-1-2.3-2.3 C335,160.9,336,159.8,337.3,159.8C337.3,159.8,337.3,159.8,337.3,159.8L337.3,159.8z M323,139.6c5.6-0.1,10.2,4.4,10.2,10 c0.1,5.6-4.4,10.2-10,10.2c-5.6,0.1-10.2-4.4-10.2-10c0,0,0-0.1,0-0.1C313,144.2,317.5,139.6,323,139.6 C323,139.6,323,139.6,323,139.6L323,139.6z M321.5,181.9c-5.6,0.1-10.2-4.4-10.2-10c-0.1-5.6,4.4-10.2,10-10.2 c5.6-0.1,10.2,4.4,10.2,10c0,0,0,0.1,0,0.1C331.6,177.4,327.1,181.9,321.5,181.9C321.5,181.9,321.5,181.9,321.5,181.9z M341.7,190.8c-5.6,0.1-10.2-4.4-10.2-10c-0.1-5.6,4.4-10.2,10-10.2c5.6-0.1,10.2,4.4,10.2,10c0,0,0,0.1,0,0.1 C351.7,186.2,347.3,190.8,341.7,190.8L341.7,190.8z M357,174.2c-5.6,0.1-10.2-4.4-10.2-10c-0.1-5.6,4.4-10.2,10-10.2 c5.6-0.1,10.2,4.4,10.2,10c0,0,0,0.1,0,0.1C367.1,169.6,362.6,174.1,357,174.2L357,174.2z"></path> <polygon class="st2" points="49.5,179 49.5,121.1 75.1,121.1 84.7,158.9 93.7,121.6 119.7,121.1 119.8,179 102.5,179 102.6,144.4 91.3,179 77.8,179 67,140.1 67,179 "></polygon> <path class="st2" d="M153.7,119.5c-17-0.1-30.8,13.6-30.9,30.5c-0.1,17,13.6,30.8,30.5,30.9s30.8-13.6,30.9-30.5c0-0.1,0-0.1,0-0.2 C184.3,133.3,170.6,119.5,153.7,119.5C153.7,119.5,153.7,119.5,153.7,119.5z M153.6,166.4c-7.3,0-13.2-7.4-13.2-16.5 s5.9-16.5,13.2-16.5c7.3,0,13.2,7.4,13.2,16.5S160.8,166.5,153.6,166.4L153.6,166.4z"></path> <polygon class="st2" points="180.9,121.3 200,179 218.5,179 238.1,121.3 219.7,121.3 209.6,158.9 199.4,121.3 "></polygon> <rect x="241.8" y="128.9" class="st2" width="18.2" height="49.4"></rect> <polygon class="st2" points="284.9,166.4 284.9,155.2 310.5,155.2 310.5,142.4 284.9,142.4 284.9,134.2 312.3,134.2 312.3,121.1 284.9,121.1 266.9,121.1 266.9,134.2 266.9,179 280.6,179 284.9,179 314.8,179 314.8,166.4 "></polygon> <text transform="matrix(0.99 0 0 1 45.8917 223.5914)" class="st2 st3 st4">NIGH</text> <text transform="matrix(0.99 0 0 1 168.1788 223.5914)" class="st2 st3 st4">T</text> <text transform="matrix(0.99 0 0 1 196.2784 223.5914)" class="st2 st3 st4">S</text> <text transform="matrix(0.99 0 0 1 227.3624 210.3795)" class="st2 st3 st5">IN</text> <text transform="matrix(0.99 0 0 1 252.7764 210.3795)" class="st2 st3 st5 st6"> </text> <text transform="matrix(0.99 0 0 1 257.0225 210.3795)" class="st2 st3 st5">THE </text> <text transform="matrix(0.99 0 0 1 308.4366 210.3795)" class="st2 st3 st5 st6">P</text> <text transform="matrix(0.99 0 0 1 322.0215 210.3795)" class="st2 st3 st5">ARK</text> <text transform="matrix(0.99 0 0 1 48.0235 239.0172)" class="st2 st3 st7">#MN</text> <text transform="matrix(0.99 0 0 1 84.2686 239.0172)" class="st2 st3 st7">L</text> <text transform="matrix(0.99 0 0 1 92.9893 239.0172)" class="st2 st3 st7">dn</text> <text transform="matrix(0.99 0 0 1 113.5274 239.0172)" class="st2 st3 st7">O</text> <text transform="matrix(0.99 0 0 1 126.0567 239.0172)" class="st2 st3 st7">n</text> <text transform="matrix(0.99 0 0 1 136.1309 239.0172)" class="st2 st3 st7">t</text> </g> </svg> 