<?xml version="1.0" encoding="UTF-8"?> <svg xmlns="http://www.w3.org/2000/svg" viewBox="0 0 417.48 350"> <defs> <style>.cls-1{fill:#222045;}.cls-2{fill:#c9db2c;}.cls-3,.cls-4,.cls-6,.cls-9{fill:#fff;}.cls-4{font-size:45.43px;}.cls-4,.cls-6,.cls-9{font-family:MyriadPro-Bold, Myriad Pro;font-weight:700;}.cls-5{letter-spacing:-0.01em;}.cls-6{font-size:22.72px;}.cls-7{letter-spacing:-0.04em;}.cls-8{letter-spacing:-0.06em;}.cls-9{font-size:15.14px;}.cls-10{letter-spacing:-0.01em;}.cls-11{letter-spacing:0em;}.cls-12{letter-spacing:-0.01em;}</style> </defs> <title>movieNight</title> <g id="Layer_3" data-name="Layer 3"> <rect class="cls-1" width="350" height="350"></rect> </g> <g id="Layer_1" data-name="Layer 1"> <path class="cls-2" d="M288.46,132.83a30.8,30.8,0,1,0,30.47,30.79A30.63,30.63,0,0,0,288.46,132.83Zm5.82,7a8.72,8.72,0,1,1-8.63,8.72A8.67,8.67,0,0,1,294.28,139.82Zm-6.63,22a2,2,0,1,1-2,2A2,2,0,0,1,287.65,161.79Zm-12.33-17.44a8.72,8.72,0,1,1-8.63,8.72A8.67,8.67,0,0,1,275.32,144.36ZM274,180.91a8.72,8.72,0,1,1,8.63-8.72A8.67,8.67,0,0,1,274,180.91Zm17.39,7.64a8.72,8.72,0,1,1,8.63-8.72A8.67,8.67,0,0,1,291.43,188.55Zm13.26-14.37a8.72,8.72,0,1,1,8.63-8.72A8.67,8.67,0,0,1,304.69,174.19Z" transform="translate(0)"></path> <polygon class="cls-3" points="39.32 178.39 39.32 128.42 61.42 128.42 69.66 160.98 77.4 128.8 99.88 128.42 99.96 178.39 85.02 178.39 85.08 148.49 75.36 178.39 63.69 178.39 54.37 144.76 54.37 178.39 39.32 178.39"></polygon> <path class="cls-3" d="M129.22,127a26.5,26.5,0,1,0,26.34,26.5A26.42,26.42,0,0,0,129.22,127Zm-.12,40.51c-6.27,0-11.36-6.38-11.36-14.26S122.82,139,129.09,139s11.36,6.38,11.36,14.26S135.37,167.54,129.09,167.54Z" transform="translate(0)"></path> <polygon class="cls-3" points="152.69 128.55 169.17 178.39 185.15 178.39 202 128.55 186.15 128.55 177.47 161.04 168.62 128.58 152.69 128.55"></polygon> <rect class="cls-3" x="205.25" y="135.17" width="15.73" height="42.6"></rect> <polygon class="cls-3" points="242.41 167.48 242.41 157.82 264.46 157.82 264.46 146.75 242.41 146.75 242.41 139.75 266.05 139.75 266.05 128.39 242.41 128.39 226.91 128.39 226.91 139.75 226.91 178.39 238.66 178.39 242.41 178.39 268.2 178.39 268.2 167.48 242.41 167.48"></polygon> <text class="cls-4" transform="translate(36.18 216.84) scale(0.99 1)">NIGH<tspan class="cls-5" x="106.58" y="0">T</tspan><tspan x="131.07" y="0">S</tspan></text> <text class="cls-6" transform="translate(192.76 205.44) scale(0.99 1)">IN<tspan class="cls-7" x="22.15" y="0"> </tspan><tspan x="25.85" y="0">THE </tspan><tspan class="cls-8" x="70.66" y="0">P</tspan><tspan x="82.5" y="0">ARK</tspan></text> <text class="cls-9" transform="translate(38.02 230.15) scale(0.99 1)">#MN<tspan class="cls-10" x="31.59" y="0">L</tspan><tspan x="39.19" y="0">dn</tspan><tspan class="cls-11" x="57.09" y="0">O</tspan><tspan class="cls-12" x="68.01" y="0">n</tspan><tspan x="76.79" y="0">t</tspan></text> </g> </svg> 