<?xml version="1.0" encoding="utf-8"?>
<!-- Generator: Adobe Illustrator 21.1.0, SVG Export Plug-In . SVG Version: 6.00 Build 0)  -->
<svg version="1.1" id="Layer_1" xmlns="http://www.w3.org/2000/svg" xmlns:xlink="http://www.w3.org/1999/xlink" x="0px" y="0px"
	 viewBox="0 0 349.9 349.9" style="enable-background:new 0 0 349.9 349.9;" xml:space="preserve">
<style type="text/css">
	.st0{fill:#222045;}
	.st1{fill:#C9DB2C;}
	.st2{fill:#FFFFFF;}
	.st3{font-family:'MyriadPro-Bold';}
	.st4{font-size:44.7165px;}
	.st5{font-size:22.3582px;}
	.st6{letter-spacing:-1;}
	.st7{font-size:14.9055px;}
</style>
<title>movieNights</title>
<g id="Layer_3">
	<rect x="0" y="0" class="st0" width="349.9" height="349.9"/>
</g>
<g id="Layer_1_1_">
	<path class="st1" d="M286.3,128.2c-16.7-0.2-30.4,13.2-30.6,30c-0.2,16.7,13.2,30.4,30,30.6c16.7,0.2,30.4-13.2,30.6-30
		c0-0.1,0-0.2,0-0.3C316.4,141.8,303,128.3,286.3,128.2C286.3,128.2,286.3,128.2,286.3,128.2z M292,135c4.7-0.1,8.6,3.7,8.7,8.5
		s-3.7,8.6-8.5,8.7c-4.7,0.1-8.6-3.7-8.7-8.5c0,0,0-0.1,0-0.1C283.5,138.9,287.3,135.1,292,135L292,135z M285.5,156.6
		c1.1,0,2,0.9,2,2c0,1.1-0.9,2-2,2c-1.1,0-2-0.9-2-2c0,0,0,0,0,0C283.6,157.5,284.4,156.7,285.5,156.6
		C285.5,156.6,285.5,156.6,285.5,156.6z M273.4,139.5c4.7-0.1,8.6,3.7,8.7,8.5s-3.7,8.6-8.5,8.7c-4.7,0.1-8.6-3.7-8.7-8.5
		c0,0,0-0.1,0-0.1C264.9,143.4,268.7,139.6,273.4,139.5L273.4,139.5z M272.1,175.5c-4.7,0.1-8.6-3.7-8.7-8.5
		c-0.1-4.7,3.7-8.6,8.5-8.7c4.7-0.1,8.6,3.7,8.7,8.5c0,0,0,0.1,0,0.1C280.7,171.6,276.9,175.5,272.1,175.5
		C272.1,175.5,272.1,175.5,272.1,175.5L272.1,175.5z M289.2,183c-4.7,0.1-8.6-3.7-8.7-8.5s3.7-8.6,8.5-8.7c4.7-0.1,8.6,3.7,8.7,8.5
		c0,0,0,0.1,0,0.1C297.8,179.1,294,183,289.2,183C289.3,183,289.3,183,289.2,183L289.2,183z M302.2,168.9c-4.7,0.1-8.6-3.7-8.7-8.5
		c-0.1-4.7,3.7-8.6,8.5-8.7s8.6,3.7,8.7,8.5c0,0,0,0.1,0,0.1C310.7,165,306.9,168.9,302.2,168.9z"/>
	<polygon class="st2" points="41.1,173 41.1,123.8 62.8,123.8 71,155.9 78.6,124.2 100.7,123.8 100.8,173 86.1,173 86.1,143.6 
		76.6,173 65.1,173 55.9,139.9 55.9,173 	"/>
	<path class="st2" d="M129.6,122.5c-14.4-0.1-26.2,11.5-26.2,25.9c-0.1,14.4,11.5,26.2,25.9,26.2s26.2-11.5,26.2-25.9
		c0,0,0-0.1,0-0.1C155.6,134.2,144,122.5,129.6,122.5C129.6,122.5,129.6,122.5,129.6,122.5z M129.5,162.3c-6.2,0-11.2-6.3-11.2-14
		s5-14,11.2-14c6.2,0,11.2,6.3,11.2,14S135.6,162.3,129.5,162.3z"/>
	<polygon class="st2" points="152.7,124 168.9,173 184.6,173 201.2,124 185.6,124 177.1,155.9 168.4,124 	"/>
	<rect x="204.4" y="130.5" class="st2" width="15.5" height="41.9"/>
	<polygon class="st2" points="241,162.3 241,152.8 262.7,152.8 262.7,141.9 241,141.9 241,135 264.3,135 264.3,123.8 241,123.8 
		225.7,123.8 225.7,135 225.7,173 237.3,173 241,173 266.4,173 266.4,162.3 	"/>
	<text transform="matrix(0.99 0 0 1 37.9964 210.8635)" class="st2 st3 st4">NIGH</text>
	<text transform="matrix(0.99 0 0 1 141.8479 210.8635)" class="st2 st3 st4">T</text>
	<text transform="matrix(0.99 0 0 1 165.721 210.8635)" class="st2 st3 st4">S</text>
	<text transform="matrix(0.99 0 0 1 192.1321 199.6438)" class="st2 st3 st5">IN</text>
	<text transform="matrix(0.99 0 0 1 213.7093 199.6438)" class="st2 st3 st5"> </text>
	<text transform="matrix(0.99 0 0 1 217.3186 199.6438)" class="st2 st3 st5">THE </text>
	<text transform="matrix(0.99 0 0 1 260.9905 199.6438)" class="st2 st3 st5 st6">P</text>
	<text transform="matrix(0.99 0 0 1 272.5227 199.6438)" class="st2 st3 st5">ARK</text>
	<text transform="matrix(0.99 0 0 1 39.805 223.9714)" class="st2 st3 st7">#MN</text>
	<text transform="matrix(0.99 0 0 1 70.5931 223.9714)" class="st2 st3 st7">L</text>
	<text transform="matrix(0.99 0 0 1 77.9964 223.9714)" class="st2 st3 st7">dn</text>
	<text transform="matrix(0.99 0 0 1 95.4339 223.9714)" class="st2 st3 st7">O</text>
	<text transform="matrix(0.99 0 0 1 106.0765 223.9714)" class="st2 st3 st7">n</text>
	<text transform="matrix(0.99 0 0 1 114.636 223.9714)" class="st2 st3 st7">t</text>
</g>
</svg>
