<?xml version="1.0" encoding="UTF-8"?> <svg xmlns="http://www.w3.org/2000/svg" viewBox="0 0 416 350"> <defs> <style>.cls-1{fill:#222045;}.cls-2{fill:#c9db2c;}.cls-3,.cls-4,.cls-6,.cls-9{fill:#fff;}.cls-4{font-size:45.06px;}.cls-4,.cls-6,.cls-9{font-family:MyriadPro-Bold, Myriad Pro;font-weight:700;}.cls-5{letter-spacing:-0.01em;}.cls-6{font-size:22.53px;}.cls-7{letter-spacing:-0.04em;}.cls-8{letter-spacing:-0.06em;}.cls-9{font-size:15.02px;}.cls-10{letter-spacing:-0.01em;}.cls-11{letter-spacing:0em;}.cls-12{letter-spacing:-0.01em;}</style> </defs> <title>movieNights</title> <g id="Layer_3" data-name="Layer 3"> <rect class="cls-1" width="350" height="350"></rect> </g> <g id="Layer_1" data-name="Layer 1"> <path class="cls-2" d="M288,134.18a30.54,30.54,0,1,0,30.22,30.54A30.38,30.38,0,0,0,288,134.18Zm5.77,6.93a8.65,8.65,0,1,1-8.56,8.65A8.6,8.6,0,0,1,293.76,141.11Zm-6.58,21.8a2,2,0,1,1-2,2A2,2,0,0,1,287.19,162.91ZM275,145.62a8.65,8.65,0,1,1-8.55,8.65A8.6,8.6,0,0,1,275,145.62Zm-1.27,36.26a8.65,8.65,0,1,1,8.55-8.65A8.6,8.6,0,0,1,273.68,181.87Zm17.25,7.58a8.65,8.65,0,1,1,8.56-8.65A8.6,8.6,0,0,1,290.94,189.45Zm13.15-14.25a8.65,8.65,0,1,1,8.56-8.65A8.6,8.6,0,0,1,304.09,175.2Z" transform="translate(0.04 0.04)"></path> <polygon class="cls-3" points="40.94 179.42 40.94 129.85 62.85 129.85 71.03 162.14 78.7 130.23 100.99 129.85 101.08 179.42 86.26 179.42 86.32 149.75 76.68 179.42 65.11 179.42 55.86 146.06 55.86 179.42 40.94 179.42"></polygon> <path class="cls-3" d="M130.05,128.44a26.28,26.28,0,1,0,26.13,26.28A26.21,26.21,0,0,0,130.05,128.44Zm-.12,40.18c-6.22,0-11.27-6.33-11.27-14.14s5-14.14,11.27-14.14,11.27,6.33,11.27,14.14S136.15,168.61,129.93,168.61Z" transform="translate(0.04 0.04)"></path> <polygon class="cls-3" points="153.37 129.98 169.72 179.41 185.56 179.42 202.28 129.98 186.56 129.98 177.95 162.21 169.17 130.01 153.37 129.98"></polygon> <rect class="cls-3" x="205.5" y="136.54" width="15.6" height="42.25"></rect> <polygon class="cls-3" points="242.35 168.59 242.35 159.01 264.23 159.01 264.23 148.03 242.35 148.03 242.35 141.09 265.8 141.09 265.8 129.82 242.35 129.82 226.99 129.82 226.99 141.09 226.99 179.42 238.64 179.42 242.35 179.42 267.94 179.42 267.94 168.59 242.35 168.59"></polygon> <text class="cls-4" transform="translate(37.82 217.54) scale(0.99 1)">NIGH<tspan class="cls-5" x="105.7" y="0">T</tspan><tspan x="129.99" y="0">S</tspan></text> <text class="cls-6" transform="translate(193.12 206.24) scale(0.99 1)">IN<tspan class="cls-7" x="21.96" y="0"> </tspan><tspan x="25.64" y="0">THE </tspan><tspan class="cls-8" x="70.09" y="0">P</tspan><tspan x="81.82" y="0">ARK</tspan></text> <text class="cls-9" transform="translate(39.65 230.75) scale(0.99 1)">#MN<tspan class="cls-10" x="31.33" y="0">L</tspan><tspan x="38.87" y="0">dn</tspan><tspan class="cls-11" x="56.62" y="0">O</tspan><tspan class="cls-12" x="67.45" y="0">n</tspan><tspan x="76.16" y="0">t</tspan></text> </g> </svg> 