<?xml version="1.0" encoding="UTF-8"?> <!-- Generator: Adobe Illustrator 21.1.0, SVG Export Plug-In . SVG Version: 6.00 Build 0) --> <svg xmlns="http://www.w3.org/2000/svg" xmlns:xlink="http://www.w3.org/1999/xlink" id="Layer_1" x="0px" y="0px" viewBox="0 0 417.5 288" style="enable-background:new 0 0 417.5 288;" xml:space="preserve"> <style type="text/css"> .st0{fill:#222045;} .st1{fill:#C9DB2C;} .st2{fill:#FFFFFF;} .st3{enable-background:new ;} </style> <title>movieNight</title> <g id="Layer_3"> <rect class="st0" width="417.5" height="288"></rect> </g> <g id="Layer_1_1_"> <path class="st1" d="M323.2,100.5c-17.1-0.2-31.1,13.5-31.3,30.6c-0.2,17.1,13.5,31.1,30.6,31.3c17.1,0.2,31.1-13.5,31.3-30.6 c0-0.1,0-0.2,0-0.3C353.9,114.5,340.2,100.6,323.2,100.5C323.2,100.5,323.2,100.5,323.2,100.5z M329,107.6c4.8,0,8.8,3.8,8.8,8.7 c0,4.8-3.8,8.8-8.7,8.8c-4.8,0-8.8-3.8-8.8-8.7c0,0,0-0.1,0-0.1C320.3,111.5,324.2,107.6,329,107.6C329,107.5,329,107.5,329,107.6 L329,107.6z M322.4,129.6c1.1,0,2,0.9,2,2c0,1.1-0.9,2-2,2c-1.1,0-2-0.9-2-2C320.3,130.5,321.2,129.6,322.4,129.6 C322.3,129.6,322.4,129.6,322.4,129.6L322.4,129.6z M310,112.1c4.8,0,8.8,3.8,8.8,8.7c0,4.8-3.8,8.8-8.7,8.8 c-4.8,0-8.8-3.8-8.8-8.7c0,0,0-0.1,0-0.1C301.3,116.1,305.1,112.1,310,112.1C310,112.1,310,112.1,310,112.1L310,112.1z M308.7,148.8c-4.8,0-8.8-3.8-8.8-8.7c0-4.8,3.8-8.8,8.7-8.8c4.8,0,8.8,3.8,8.8,8.7c0,0,0,0.1,0,0.1 C317.4,144.9,313.5,148.8,308.7,148.8C308.7,148.8,308.7,148.8,308.7,148.8z M326.1,156.5c-4.8,0-8.8-3.8-8.8-8.7 c0-4.8,3.8-8.8,8.7-8.8c4.8,0,8.8,3.8,8.8,8.7c0,0,0,0.1,0,0.1C334.8,152.5,331,156.4,326.1,156.5L326.1,156.5z M339.4,142.1 c-4.8,0-8.8-3.8-8.8-8.7c0-4.8,3.8-8.8,8.7-8.8c4.8,0,8.8,3.8,8.8,8.7c0,0,0,0.1,0,0.1C348.1,138.1,344.3,142,339.4,142.1 L339.4,142.1z"></path> <polygon class="st2" points="73,146.3 73,96.1 95.2,96.1 103.4,128.8 111.2,96.5 133.8,96.1 133.9,146.3 118.9,146.3 118.9,116.3 109.2,146.3 97.4,146.3 88.1,112.5 88.1,146.3 "></polygon> <path class="st2" d="M163.3,94.7c-14.7-0.1-26.7,11.8-26.8,26.5c-0.1,14.7,11.8,26.7,26.5,26.8c14.7,0.1,26.7-11.8,26.8-26.5 c0-0.1,0-0.1,0-0.2C189.8,106.6,177.9,94.7,163.3,94.7C163.3,94.7,163.3,94.7,163.3,94.7z M163.1,135.4c-6.3,0-11.4-6.4-11.4-14.3 s5.1-14.3,11.4-14.3c6.3,0,11.4,6.4,11.4,14.3S169.4,135.4,163.1,135.4L163.1,135.4z"></path> <polygon class="st2" points="186.8,96.2 203.4,146.3 219.4,146.3 236.3,96.2 220.4,96.2 211.7,128.9 202.8,96.3 "></polygon> <rect x="239.6" y="102.9" class="st2" width="15.8" height="42.8"></rect> <polygon class="st2" points="276.9,135.3 276.9,125.6 299.1,125.6 299.1,114.5 276.9,114.5 276.9,107.5 300.7,107.5 300.7,96.1 276.9,96.1 261.4,96.1 261.4,107.5 261.4,146.3 273.2,146.3 276.9,146.3 302.8,146.3 302.8,135.3 "></polygon> <g class="st3"> <path class="st2" d="M72.8,184.9v-30.8h8l6.3,11.3c1.8,3.2,3.6,7.1,5,10.5h0.1c-0.5-4.1-0.6-8.2-0.6-12.8v-9H98v30.8h-7.2 L84.3,173c-1.8-3.3-3.8-7.3-5.3-10.9l-0.1,0c0.2,4.1,0.3,8.4,0.3,13.4v9.3H72.8z"></path> <path class="st2" d="M110.9,154.1v30.8H104v-30.8H110.9z"></path> <path class="st2" d="M142.3,183.5c-2.1,0.7-6.1,1.7-10.2,1.7c-5.6,0-9.6-1.4-12.4-4.2c-2.8-2.6-4.3-6.7-4.3-11.2 c0-10.2,7.4-16.1,17.4-16.1c3.9,0,7,0.8,8.4,1.5l-1.4,5.6c-1.7-0.7-3.7-1.3-7.1-1.3c-5.7,0-10.1,3.3-10.1,9.9 c0,6.3,3.9,10.1,9.6,10.1c1.6,0,2.8-0.2,3.4-0.5v-6.4h-4.7v-5.4h11.3V183.5z"></path> <path class="st2" d="M154.6,154.1V166h11.3v-11.8h6.9v30.8h-6.9V172h-11.3v12.9h-6.9v-30.8H154.6z"></path> </g> <g class="st3"> <path class="st2" d="M184.6,160h-8.2v-5.8h23.4v5.8h-8.3v24.9h-6.9V160z"></path> </g> <g class="st3"> <path class="st2" d="M203.3,177.7c1.9,1,4.7,1.9,7.6,1.9c3.2,0,4.8-1.3,4.8-3.3c0-1.9-1.4-3-5.1-4.3c-5.1-1.8-8.4-4.6-8.4-9.1 c0-5.2,4.3-9.3,11.5-9.3c3.4,0,6,0.7,7.8,1.6l-1.5,5.6c-1.2-0.6-3.4-1.5-6.4-1.5c-3,0-4.4,1.4-4.4,3c0,2,1.7,2.8,5.6,4.3 c5.4,2,7.9,4.8,7.9,9.2c0,5.2-3.9,9.5-12.3,9.5c-3.5,0-6.9-0.9-8.6-1.9L203.3,177.7z"></path> </g> <g class="st3"> <path class="st2" d="M232,158.1v15.4h-3.5v-15.4H232z"></path> <path class="st2" d="M235,173.4v-15.4h4l3.2,5.6c0.9,1.6,1.8,3.5,2.5,5.3h0.1c-0.2-2-0.3-4.1-0.3-6.4v-4.5h3.2v15.4H244l-3.3-5.9 c-0.9-1.6-1.9-3.6-2.6-5.4l-0.1,0c0.1,2,0.1,4.2,0.1,6.7v4.6H235z"></path> </g> <g class="st3"> <path class="st2" d="M257.2,161h-4.1v-2.9h11.7v2.9h-4.2v12.5h-3.5V161z"></path> <path class="st2" d="M270.1,158.1v5.9h5.7v-5.9h3.4v15.4h-3.4V167h-5.7v6.4h-3.5v-15.4H270.1z"></path> <path class="st2" d="M291.3,166.9h-5.6v3.7h6.3v2.9h-9.7v-15.4h9.4v2.9h-5.9v3.2h5.6V166.9z"></path> </g> <g class="st3"> <path class="st2" d="M298.8,158.3c1.1-0.2,2.6-0.3,4.7-0.3c2.1,0,3.6,0.4,4.7,1.2c1,0.8,1.6,2.1,1.6,3.6s-0.5,2.8-1.4,3.7 c-1.2,1.1-2.9,1.6-4.9,1.6c-0.5,0-0.9,0-1.2-0.1v5.5h-3.4V158.3z M302.2,165.3c0.3,0.1,0.7,0.1,1.2,0.1c1.8,0,3-0.9,3-2.5 c0-1.4-1-2.3-2.7-2.3c-0.7,0-1.2,0.1-1.4,0.1V165.3z"></path> </g> <g class="st3"> <path class="st2" d="M314.1,169.5l-1.1,3.9h-3.6l4.7-15.4h4.5l4.7,15.4h-3.7l-1.2-3.9H314.1z M318,166.9l-0.9-3.3 c-0.3-0.9-0.5-2.1-0.8-3h0c-0.2,0.9-0.5,2.1-0.7,3l-0.9,3.3H318z"></path> <path class="st2" d="M325.4,158.3c1.1-0.2,2.8-0.3,4.6-0.3c2.3,0,3.8,0.3,4.9,1.2c0.9,0.7,1.4,1.8,1.4,3.2c0,2-1.4,3.3-2.7,3.8 v0.1c1.1,0.4,1.6,1.5,2,2.9c0.5,1.7,0.9,3.7,1.2,4.3h-3.5c-0.2-0.4-0.6-1.7-1.1-3.6c-0.4-1.9-1.1-2.4-2.5-2.5h-1v6h-3.4V158.3z M328.8,164.9h1.4c1.7,0,2.7-0.9,2.7-2.2c0-1.4-0.9-2.1-2.5-2.1c-0.8,0-1.3,0.1-1.6,0.1V164.9z"></path> <path class="st2" d="M338.8,158.1h3.4v6.8h0.1c0.3-0.6,0.7-1.1,1-1.7l3.5-5.1h4.2l-5,6.5l5.3,8.8h-4l-3.7-6.6l-1.3,1.6v5h-3.4 V158.1z"></path> </g> <g class="st3"> <path class="st2" d="M73,198.3l0.4-2.7h-1.2v-1.4h1.5l0.2-1.7h-1.3V191h1.5l0.4-2.6h1.3l-0.4,2.6h1.4l0.4-2.6h1.3l-0.4,2.6h1.2 v1.4H78l-0.2,1.7H79v1.4h-1.5l-0.4,2.7h-1.4l0.4-2.7h-1.4l-0.4,2.7H73z M76.4,194.1l0.2-1.7h-1.4l-0.2,1.7H76.4z"></path> <path class="st2" d="M89.5,194.3c0-1.2-0.1-2.7-0.1-4.2h0c-0.3,1.3-0.7,2.8-1.1,4l-1.2,4h-1.8l-1.1-4c-0.3-1.2-0.7-2.7-0.9-4h0 c-0.1,1.4-0.1,3-0.2,4.2l-0.2,3.9h-2.1l0.6-10.2h3.1l1,3.4c0.3,1.2,0.6,2.5,0.9,3.7h0c0.3-1.2,0.6-2.5,1-3.7l1.1-3.4h3l0.6,10.2 h-2.2L89.5,194.3z"></path> <path class="st2" d="M93.7,198.3V188h2.7l2.1,3.8c0.6,1.1,1.2,2.4,1.7,3.5h0c-0.2-1.4-0.2-2.7-0.2-4.3v-3h2.1v10.2h-2.4l-2.2-4 c-0.6-1.1-1.3-2.4-1.8-3.6l0,0c0.1,1.4,0.1,2.8,0.1,4.5v3.1H93.7z"></path> </g> <g class="st3"> <path class="st2" d="M104.1,188h2.3v8.3h4v1.9h-6.3V188z"></path> </g> <g class="st3"> <path class="st2" d="M118.7,187.5v8.6c0,0.8,0,1.7,0.1,2.2h-2l-0.1-1.1h0c-0.5,0.8-1.4,1.3-2.3,1.3c-1.7,0-3.1-1.5-3.1-3.8 c0-2.5,1.5-4,3.3-4c0.9,0,1.6,0.3,1.9,0.8h0v-4H118.7z M116.4,194c0-0.1,0-0.3,0-0.4c-0.1-0.6-0.6-1.1-1.3-1.1 c-1,0-1.6,0.9-1.6,2.1c0,1.3,0.6,2.1,1.6,2.1c0.7,0,1.2-0.5,1.3-1.1c0-0.2,0.1-0.3,0.1-0.5V194z"></path> <path class="st2" d="M120.5,193.2c0-0.9,0-1.7-0.1-2.4h2l0.1,1h0c0.3-0.5,1.1-1.2,2.3-1.2c1.5,0,2.6,1,2.6,3.2v4.4h-2.3v-4.1 c0-1-0.3-1.6-1.2-1.6c-0.6,0-1,0.4-1.2,0.9c-0.1,0.1-0.1,0.4-0.1,0.6v4.3h-2.3V193.2z"></path> </g> <g class="st3"> <path class="st2" d="M138.7,193c0,3.4-2,5.4-5,5.4c-3,0-4.8-2.3-4.8-5.2c0-3.1,1.9-5.4,4.9-5.4C137,187.8,138.7,190.2,138.7,193z M131.4,193.2c0,2,0.9,3.4,2.5,3.4c1.5,0,2.4-1.5,2.4-3.5c0-1.8-0.9-3.4-2.5-3.4C132.3,189.7,131.4,191.2,131.4,193.2z"></path> </g> <g class="st3"> <path class="st2" d="M140.2,193.2c0-0.9,0-1.7-0.1-2.4h2l0.1,1h0c0.3-0.5,1.1-1.2,2.3-1.2c1.5,0,2.6,1,2.6,3.2v4.4h-2.3v-4.1 c0-1-0.3-1.6-1.2-1.6c-0.6,0-1,0.4-1.2,0.9c-0.1,0.1-0.1,0.4-0.1,0.6v4.3h-2.3V193.2z"></path> </g> <g class="st3"> <path class="st2" d="M151.5,188.7v2.1h1.6v1.7h-1.6v2.7c0,0.9,0.2,1.3,0.9,1.3c0.3,0,0.5,0,0.7-0.1l0,1.7 c-0.3,0.1-0.8,0.2-1.5,0.2c-0.7,0-1.4-0.3-1.7-0.6c-0.4-0.4-0.6-1.2-0.6-2.2v-3h-1v-1.7h1v-1.6L151.5,188.7z"></path> </g> </g> </svg> 