<?xml version="1.0" encoding="UTF-8"?> <svg xmlns="http://www.w3.org/2000/svg" viewBox="0 0 1428.22 1145.96"> <defs> <style>.cls-1{fill:#222045;}.cls-2{fill:#c9db2c;}.cls-3,.cls-4,.cls-6,.cls-9{fill:#fff;}.cls-4{font-size:156.69px;}.cls-4,.cls-6,.cls-9{font-family:MyriadPro-Bold, Myriad Pro;font-weight:700;}.cls-5{letter-spacing:-0.01em;}.cls-6{font-size:78.35px;}.cls-7{letter-spacing:-0.04em;}.cls-8{letter-spacing:-0.06em;}.cls-9{font-size:52.23px;}.cls-10{letter-spacing:-0.01em;}.cls-11{letter-spacing:0em;}.cls-12{letter-spacing:-0.01em;}</style> </defs> <title>Movie-Nights-Logo</title> <g id="Layer_3" data-name="Layer 3"> <rect class="cls-1" width="1184.07" height="1145.96"></rect> </g> <g id="Layer_1" data-name="Layer 1"> <path class="cls-2" d="M-391.48-134.72c-58,0-105.08,47.55-105.08,106.21s47,106.21,105.08,106.21S-286.4,30.15-286.4-28.51-333.45-134.72-391.48-134.72Zm20.08,24.11a29.91,29.91,0,0,1,29.75,30.07A29.91,29.91,0,0,1-371.4-50.47a29.91,29.91,0,0,1-29.75-30.07A29.91,29.91,0,0,1-371.4-110.61Zm-22.87,75.8a6.92,6.92,0,0,1,6.89,7,6.92,6.92,0,0,1-6.89,7,6.92,6.92,0,0,1-6.88-7A6.92,6.92,0,0,1-394.27-34.81ZM-436.81-95a29.91,29.91,0,0,1,29.75,30.07,29.91,29.91,0,0,1-29.75,30.07,29.91,29.91,0,0,1-29.75-30.07A29.91,29.91,0,0,1-436.81-95Zm-4.42,126.09A29.91,29.91,0,0,1-471,1.06,29.91,29.91,0,0,1-441.23-29,29.91,29.91,0,0,1-411.48,1.06,29.91,29.91,0,0,1-441.23,31.13Zm60,26.35A29.91,29.91,0,0,1-411,27.41,29.91,29.91,0,0,1-381.24-2.67a29.91,29.91,0,0,1,29.75,30.07A29.91,29.91,0,0,1-381.24,57.48ZM-335.5,7.93a29.91,29.91,0,0,1-29.75-30.07A29.91,29.91,0,0,1-335.5-52.21a29.91,29.91,0,0,1,29.75,30.07A29.91,29.91,0,0,1-335.5,7.93Z" transform="translate(1374.69 518.79)"></path> <polygon class="cls-3" points="123.92 541.24 123.92 368.87 200.14 368.87 228.56 481.17 255.26 370.18 332.77 368.87 333.06 541.24 281.52 541.24 281.74 438.08 248.23 541.24 207.97 541.24 175.81 425.24 175.81 541.24 123.92 541.24"></polygon> <path class="cls-3" d="M-940.73-154.71c-50.18,0-90.86,40.92-90.86,91.4s40.68,91.4,90.86,91.4,90.86-40.92,90.86-91.4S-890.55-154.71-940.73-154.71ZM-941.16-15c-21.64,0-39.19-22-39.19-49.18s17.54-49.18,39.19-49.18S-902-91.34-902-64.17-919.51-15-941.16-15Z" transform="translate(1374.69 518.79)"></path> <polygon class="cls-3" points="514.92 369.31 571.76 541.24 626.88 541.24 685.01 369.31 630.32 369.31 600.39 481.39 569.87 369.42 514.92 369.31"></polygon> <rect class="cls-3" x="696.21" y="392.14" width="54.26" height="146.94"></rect> <polygon class="cls-3" points="824.37 503.59 824.37 470.29 900.43 470.29 900.43 432.1 824.37 432.1 824.37 407.94 905.92 407.94 905.92 368.77 824.37 368.77 770.92 368.77 770.92 407.94 770.92 541.24 811.45 541.24 824.37 541.24 913.35 541.24 913.35 503.59 824.37 503.59"></polygon> <text class="cls-4" transform="translate(113.08 673.83) scale(0.99 1)">NIGH<tspan class="cls-5" x="367.6" y="0">T</tspan><tspan x="452.05" y="0">S</tspan></text> <text class="cls-6" transform="translate(653.15 634.51) scale(0.99 1)">IN<tspan class="cls-7" x="76.39" y="0"> </tspan><tspan x="89.16" y="0">THE </tspan><tspan class="cls-8" x="243.73" y="0">P</tspan><tspan x="284.55" y="0">ARK</tspan></text> <text class="cls-9" transform="translate(119.43 719.75) scale(0.99 1)">#MN<tspan class="cls-10" x="108.95" y="0">L</tspan><tspan x="135.17" y="0">dn</tspan><tspan class="cls-11" x="196.91" y="0">O</tspan><tspan class="cls-12" x="234.57" y="0">n</tspan><tspan x="264.86" y="0">t</tspan></text> </g> </svg> 